<?xml version="1.0" encoding="utf-8"?>
<!-- Generator: Adobe Illustrator 24.2.3, SVG Export Plug-In . SVG Version: 6.00 Build 0)  -->
<svg version="1.1" id="Layer_1" xmlns="http://www.w3.org/2000/svg" xmlns:xlink="http://www.w3.org/1999/xlink" x="0px" y="0px"
	 width="699px" height="114px" viewBox="0 0 699 114" style="enable-background:new 0 0 699 114;" xml:space="preserve">
<style type="text/css">
	.st0{fill:#FF521D;}
	.st1{enable-background:new    ;}
	.st2{fill:#FFFFFF;}
</style>
<g id="Group_27" transform="translate(-128 -959)">
	<rect id="Rectangle_18" x="240" y="964" class="st0" width="6" height="63"/>
	<g class="st1">
		<path class="st2" d="M141.7,970.4c-0.2-0.4-0.5-0.7-0.9-1s-0.8-0.5-1.2-0.7c-0.5-0.2-0.9-0.2-1.4-0.2c-0.9,0-1.7,0.2-2.3,0.5
			c-0.6,0.4-1.2,0.8-1.6,1.4c-0.4,0.6-0.7,1.3-0.9,2c-0.2,0.8-0.3,1.6-0.3,2.4c0,0.8,0.1,1.5,0.3,2.3c0.2,0.7,0.5,1.4,0.9,2
			c0.4,0.6,0.9,1.1,1.6,1.4c0.6,0.4,1.4,0.5,2.3,0.5c1.2,0,2.2-0.4,2.9-1.1s1.1-1.8,1.3-3h4c-0.1,1.2-0.4,2.2-0.8,3.1
			c-0.4,0.9-1,1.7-1.7,2.4c-0.7,0.7-1.5,1.2-2.5,1.5c-1,0.3-2,0.5-3.1,0.5c-1.4,0-2.7-0.2-3.8-0.7s-2.1-1.2-2.9-2
			c-0.8-0.9-1.4-1.9-1.8-3.1s-0.6-2.4-0.6-3.8c0-1.4,0.2-2.7,0.6-3.9c0.4-1.2,1-2.2,1.8-3.1c0.8-0.9,1.7-1.6,2.9-2.1
			s2.4-0.8,3.8-0.8c1,0,2,0.1,2.9,0.4c0.9,0.3,1.7,0.7,2.4,1.3c0.7,0.6,1.3,1.3,1.8,2.1c0.5,0.8,0.8,1.8,0.9,2.9h-4
			C142.1,971.2,141.9,970.8,141.7,970.4z"/>
		<path class="st2" d="M148.7,974.4c0.3-0.9,0.8-1.6,1.4-2.2c0.6-0.6,1.3-1.1,2.2-1.4s1.8-0.5,2.9-0.5c1.1,0,2,0.2,2.9,0.5
			c0.9,0.3,1.6,0.8,2.2,1.4c0.6,0.6,1.1,1.4,1.4,2.2s0.5,1.9,0.5,2.9c0,1.1-0.2,2-0.5,2.9c-0.3,0.9-0.8,1.6-1.4,2.2
			c-0.6,0.6-1.3,1.1-2.2,1.4c-0.9,0.3-1.8,0.5-2.9,0.5c-1.1,0-2-0.2-2.9-0.5s-1.6-0.8-2.2-1.4c-0.6-0.6-1.1-1.4-1.4-2.2
			c-0.3-0.9-0.5-1.8-0.5-2.9C148.3,976.2,148.4,975.2,148.7,974.4z M152.1,978.9c0.1,0.5,0.3,1,0.5,1.4c0.3,0.4,0.6,0.7,1,1
			c0.4,0.2,0.9,0.4,1.6,0.4s1.1-0.1,1.6-0.4c0.4-0.2,0.8-0.6,1-1c0.3-0.4,0.4-0.9,0.5-1.4s0.2-1,0.2-1.6s-0.1-1.1-0.2-1.6
			c-0.1-0.5-0.3-1-0.5-1.4c-0.3-0.4-0.6-0.7-1-1c-0.4-0.3-0.9-0.4-1.6-0.4s-1.1,0.1-1.6,0.4c-0.4,0.3-0.8,0.6-1,1
			c-0.3,0.4-0.4,0.9-0.5,1.4c-0.1,0.5-0.2,1-0.2,1.6S152,978.4,152.1,978.9z"/>
		<path class="st2" d="M168.1,970.6v1.9h0.1c0.5-0.8,1.1-1.3,1.8-1.7c0.7-0.4,1.5-0.5,2.3-0.5c1,0,1.8,0.1,2.4,0.4
			c0.6,0.3,1.1,0.6,1.5,1.1c0.4,0.5,0.6,1.1,0.8,1.7c0.1,0.7,0.2,1.4,0.2,2.3v8.3h-3.7v-7.6c0-1.1-0.2-1.9-0.5-2.5s-1-0.8-1.8-0.8
			c-1,0-1.7,0.3-2.2,0.9s-0.7,1.6-0.7,3v7h-3.7v-13.4H168.1z"/>
		<path class="st2" d="M187.4,970.6v2.5h-2.7v6.7c0,0.6,0.1,1,0.3,1.2s0.6,0.3,1.2,0.3c0.2,0,0.4,0,0.6,0c0.2,0,0.4,0,0.5-0.1v2.9
			c-0.3,0.1-0.7,0.1-1,0.1c-0.4,0-0.8,0-1.1,0c-0.6,0-1.1,0-1.6-0.1s-1-0.2-1.4-0.5c-0.4-0.2-0.7-0.5-0.9-1c-0.2-0.4-0.3-1-0.3-1.6
			V973h-2.2v-2.5h2.2v-4h3.7v4H187.4z"/>
		<path class="st2" d="M189,974.7c0.1-0.9,0.3-1.6,0.6-2.2s0.9-1,1.5-1.4c0.6-0.3,1.3-0.6,2-0.7s1.5-0.2,2.2-0.2
			c0.7,0,1.4,0,2.1,0.1c0.7,0.1,1.3,0.3,1.9,0.6c0.6,0.3,1,0.7,1.4,1.2c0.4,0.5,0.5,1.1,0.5,2v7c0,0.6,0,1.2,0.1,1.7s0.2,1,0.4,1.2
			h-3.7c-0.1-0.2-0.1-0.4-0.2-0.6c0-0.2-0.1-0.4-0.1-0.7c-0.6,0.6-1.3,1-2.1,1.3c-0.8,0.2-1.6,0.4-2.4,0.4c-0.6,0-1.2-0.1-1.8-0.2
			c-0.6-0.2-1-0.4-1.5-0.7s-0.7-0.7-1-1.2s-0.4-1.1-0.4-1.8c0-0.8,0.1-1.4,0.4-1.9c0.3-0.5,0.6-0.9,1-1.2c0.4-0.3,0.9-0.5,1.5-0.7
			c0.5-0.1,1.1-0.3,1.7-0.4s1.1-0.2,1.6-0.2c0.5-0.1,1-0.1,1.4-0.2c0.4-0.1,0.7-0.3,1-0.5c0.2-0.2,0.4-0.5,0.3-0.9
			c0-0.4-0.1-0.7-0.2-0.9c-0.1-0.2-0.3-0.4-0.5-0.5c-0.2-0.1-0.5-0.2-0.8-0.3c-0.3,0-0.6-0.1-0.9-0.1c-0.7,0-1.3,0.2-1.7,0.5
			c-0.4,0.3-0.7,0.8-0.7,1.6H189z M197.5,977.4c-0.2,0.1-0.4,0.2-0.6,0.3s-0.5,0.1-0.8,0.2c-0.3,0.1-0.6,0.1-0.8,0.1
			s-0.6,0.1-0.9,0.1c-0.3,0.1-0.6,0.1-0.8,0.2c-0.3,0.1-0.5,0.2-0.7,0.4c-0.2,0.1-0.4,0.3-0.5,0.6c-0.1,0.2-0.2,0.5-0.2,0.9
			c0,0.3,0.1,0.6,0.2,0.8c0.1,0.2,0.3,0.4,0.5,0.5s0.5,0.2,0.7,0.3c0.3,0.1,0.6,0.1,0.9,0.1c0.7,0,1.3-0.1,1.7-0.4
			c0.4-0.2,0.7-0.5,0.9-0.9c0.2-0.3,0.3-0.7,0.4-1c0-0.3,0.1-0.6,0.1-0.8V977.4z"/>
		<path class="st2" d="M210.5,973c-0.6,0-1.1,0.1-1.5,0.4c-0.4,0.3-0.7,0.6-1,1c-0.3,0.4-0.4,0.9-0.5,1.4c-0.1,0.5-0.2,1-0.2,1.5
			c0,0.5,0.1,1,0.2,1.5s0.3,1,0.5,1.4c0.2,0.4,0.6,0.7,0.9,1c0.4,0.3,0.9,0.4,1.5,0.4c0.9,0,1.6-0.2,2-0.7c0.5-0.5,0.8-1.2,0.9-2
			h3.6c-0.2,1.8-0.9,3.1-2.1,4.1c-1.1,0.9-2.6,1.4-4.4,1.4c-1,0-1.9-0.2-2.8-0.5s-1.6-0.8-2.1-1.4s-1-1.3-1.4-2.2
			c-0.3-0.8-0.5-1.8-0.5-2.8c0-1,0.2-2,0.5-2.9s0.7-1.7,1.3-2.3c0.6-0.6,1.3-1.2,2.2-1.5c0.8-0.4,1.8-0.5,2.9-0.5
			c0.8,0,1.6,0.1,2.3,0.3s1.4,0.5,2,0.9c0.6,0.4,1.1,1,1.4,1.6c0.4,0.6,0.6,1.4,0.6,2.2h-3.6C213,973.7,212,973,210.5,973z"/>
		<path class="st2" d="M226.4,970.6v2.5h-2.7v6.7c0,0.6,0.1,1,0.3,1.2s0.6,0.3,1.2,0.3c0.2,0,0.4,0,0.6,0c0.2,0,0.4,0,0.5-0.1v2.9
			c-0.3,0.1-0.7,0.1-1,0.1c-0.4,0-0.8,0-1.1,0c-0.6,0-1.1,0-1.6-0.1s-1-0.2-1.4-0.5c-0.4-0.2-0.7-0.5-0.9-1c-0.2-0.4-0.3-1-0.3-1.6
			V973h-2.2v-2.5h2.2v-4h3.7v4H226.4z"/>
	</g>
	<g class="st1">
		<path class="st2" d="M259.1,966.8c0.2-0.6,0.5-1.1,0.9-1.6c0.4-0.4,0.9-0.8,1.5-1c0.6-0.3,1.3-0.4,2-0.4c0.6,0,1.2,0.1,1.7,0.3
			s1,0.4,1.4,0.8s0.7,0.8,0.9,1.3c0.2,0.5,0.4,1.1,0.4,1.8c0,0.6-0.1,1.2-0.3,1.7c-0.2,0.5-0.4,0.9-0.8,1.3c-0.3,0.4-0.7,0.7-1.1,1
			c-0.4,0.3-0.8,0.6-1.3,0.9c-0.4,0.3-0.9,0.5-1.3,0.8s-0.8,0.5-1.2,0.8c-0.4,0.3-0.7,0.6-0.9,1c-0.3,0.3-0.4,0.7-0.5,1.2h7.3v1.5
			h-9.3c0.1-0.8,0.2-1.6,0.5-2.2c0.2-0.6,0.5-1.1,0.9-1.5c0.4-0.4,0.8-0.8,1.2-1.2c0.5-0.3,0.9-0.6,1.4-0.9c0.6-0.4,1.1-0.7,1.6-1
			c0.5-0.3,0.8-0.6,1.1-1c0.3-0.3,0.5-0.7,0.7-1c0.2-0.4,0.2-0.8,0.2-1.3c0-0.4-0.1-0.7-0.2-1c-0.1-0.3-0.3-0.6-0.6-0.8
			c-0.2-0.2-0.5-0.4-0.9-0.5c-0.3-0.1-0.7-0.2-1.1-0.2c-0.5,0-0.9,0.1-1.3,0.3c-0.4,0.2-0.6,0.5-0.9,0.8c-0.2,0.3-0.4,0.7-0.5,1.1
			s-0.1,0.8-0.1,1.3h-1.7C258.8,968.1,258.9,967.5,259.1,966.8z"/>
		<path class="st2" d="M270.2,966.8c0.2-0.6,0.5-1.1,0.9-1.6c0.4-0.4,0.9-0.8,1.5-1c0.6-0.3,1.3-0.4,2-0.4c0.6,0,1.2,0.1,1.7,0.3
			s1,0.4,1.4,0.8s0.7,0.8,0.9,1.3c0.2,0.5,0.4,1.1,0.4,1.8c0,0.6-0.1,1.2-0.3,1.7c-0.2,0.5-0.4,0.9-0.8,1.3c-0.3,0.4-0.7,0.7-1.1,1
			c-0.4,0.3-0.8,0.6-1.3,0.9c-0.4,0.3-0.9,0.5-1.3,0.8s-0.8,0.5-1.2,0.8c-0.4,0.3-0.7,0.6-0.9,1c-0.3,0.3-0.4,0.7-0.5,1.2h7.3v1.5
			h-9.3c0.1-0.8,0.2-1.6,0.5-2.2c0.2-0.6,0.5-1.1,0.9-1.5c0.4-0.4,0.8-0.8,1.2-1.2c0.5-0.3,0.9-0.6,1.4-0.9c0.6-0.4,1.1-0.7,1.6-1
			c0.5-0.3,0.8-0.6,1.1-1c0.3-0.3,0.5-0.7,0.7-1c0.2-0.4,0.2-0.8,0.2-1.3c0-0.4-0.1-0.7-0.2-1c-0.1-0.3-0.3-0.6-0.6-0.8
			c-0.2-0.2-0.5-0.4-0.9-0.5c-0.3-0.1-0.7-0.2-1.1-0.2c-0.5,0-0.9,0.1-1.3,0.3c-0.4,0.2-0.6,0.5-0.9,0.8c-0.2,0.3-0.4,0.7-0.5,1.1
			s-0.1,0.8-0.1,1.3H270C270,968.1,270,967.5,270.2,966.8z"/>
		<path class="st2" d="M283.8,976.2c0.5,0.4,1.1,0.6,1.8,0.6c1,0,1.8-0.5,2.3-1.4c0.5-0.9,0.8-2.3,0.9-4.1l0,0
			c-0.3,0.6-0.8,1.1-1.4,1.4c-0.6,0.4-1.2,0.5-1.9,0.5c-0.7,0-1.4-0.1-1.9-0.3c-0.6-0.2-1-0.6-1.4-1s-0.7-0.9-0.9-1.5
			c-0.2-0.6-0.3-1.2-0.3-1.9c0-0.7,0.1-1.3,0.3-1.9c0.2-0.6,0.5-1.1,1-1.5c0.4-0.4,0.9-0.7,1.5-1s1.2-0.3,1.9-0.3
			c0.7,0,1.3,0.1,1.9,0.3c0.6,0.2,1.1,0.6,1.5,1.1c0.4,0.5,0.8,1.2,1.1,2.1c0.3,0.9,0.4,2,0.4,3.3c0,2.5-0.4,4.3-1.2,5.7
			c-0.8,1.3-2,2-3.8,2c-1.2,0-2.2-0.3-3-0.9c-0.8-0.6-1.2-1.5-1.3-2.7h1.7C283,975.3,283.3,975.8,283.8,976.2z M288.2,967.3
			c-0.1-0.4-0.3-0.7-0.6-1c-0.2-0.3-0.6-0.5-0.9-0.7c-0.4-0.2-0.8-0.3-1.3-0.3c-0.5,0-0.9,0.1-1.3,0.3c-0.4,0.2-0.6,0.4-0.9,0.8
			c-0.2,0.3-0.4,0.7-0.5,1.1s-0.1,0.8-0.1,1.3c0,0.4,0.1,0.8,0.2,1.1c0.1,0.4,0.3,0.7,0.6,1c0.2,0.3,0.5,0.5,0.9,0.7
			c0.3,0.2,0.7,0.2,1.1,0.2c0.4,0,0.8-0.1,1.2-0.2c0.4-0.2,0.7-0.4,0.9-0.7c0.3-0.3,0.4-0.6,0.6-1s0.2-0.8,0.2-1.2
			C288.4,968.1,288.4,967.7,288.2,967.3z"/>
		<path class="st2" d="M301.7,973.2v1.5h-1.9v3.3h-1.6v-3.3h-6.2V973l6.5-9.2h1.4v9.4H301.7z M298.1,966.2L298.1,966.2l-4.8,6.9h4.8
			V966.2z"/>
		<path class="st2" d="M306.2,965.6l-0.8,4.1l0,0c0.3-0.3,0.7-0.6,1.2-0.8s1-0.2,1.5-0.2c0.6,0,1.2,0.1,1.8,0.3s1,0.5,1.5,0.9
			c0.4,0.4,0.7,0.9,1,1.5c0.2,0.6,0.4,1.3,0.4,2.1c0,0.6-0.1,1.2-0.3,1.8c-0.2,0.6-0.5,1.1-0.9,1.5c-0.4,0.4-0.9,0.8-1.5,1
			c-0.6,0.3-1.3,0.4-2.2,0.4c-0.6,0-1.2-0.1-1.7-0.3c-0.5-0.2-1-0.4-1.4-0.8c-0.4-0.3-0.7-0.8-1-1.3c-0.2-0.5-0.4-1.1-0.4-1.7h1.7
			c0,0.4,0.1,0.7,0.3,1s0.4,0.6,0.6,0.8c0.3,0.2,0.6,0.4,0.9,0.5c0.4,0.1,0.7,0.2,1.2,0.2c0.4,0,0.8-0.1,1.1-0.2
			c0.4-0.1,0.7-0.4,1-0.6c0.3-0.3,0.5-0.6,0.6-1.1c0.2-0.4,0.2-0.9,0.2-1.5c0-0.5-0.1-0.9-0.2-1.3c-0.2-0.4-0.4-0.7-0.6-1
			c-0.3-0.3-0.6-0.5-1-0.7c-0.4-0.2-0.8-0.2-1.3-0.2c-0.6,0-1.1,0.1-1.5,0.4c-0.4,0.2-0.8,0.6-1.1,1l-1.5-0.1l1.3-7.4h7v1.5H306.2z"
			/>
		<path class="st2" d="M326.7,963.7l5.6,14.3h-2.1l-1.6-4.3h-6L321,978H319l5.6-14.3H326.7z M328,972.1l-2.4-6.7h0l-2.4,6.7H328z"/>
		<path class="st2" d="M335,967.7v1.6h0c0.7-1.3,1.8-1.9,3.4-1.9c0.7,0,1.2,0.1,1.7,0.3c0.5,0.2,0.8,0.4,1.1,0.8
			c0.3,0.3,0.5,0.7,0.6,1.2s0.2,1,0.2,1.5v6.8h-1.7v-7c0-0.6-0.2-1.1-0.6-1.5c-0.4-0.4-0.9-0.6-1.5-0.6c-0.5,0-1,0.1-1.4,0.2
			s-0.7,0.4-0.9,0.7c-0.3,0.3-0.4,0.6-0.6,1c-0.1,0.4-0.2,0.8-0.2,1.3v5.8h-1.7v-10.3H335z"/>
		<path class="st2" d="M344.6,965.8v-2.1h1.7v2.1H344.6z M346.3,967.7V978h-1.7v-10.3H346.3z"/>
		<path class="st2" d="M356.5,981.9v-5.3h0c-0.3,0.6-0.7,1-1.3,1.2s-1.3,0.4-2,0.4c-0.8,0-1.5-0.1-2.1-0.4c-0.6-0.3-1.1-0.7-1.5-1.2
			c-0.4-0.5-0.7-1.1-0.9-1.7s-0.3-1.3-0.3-2.1s0.1-1.4,0.3-2.1s0.5-1.2,0.9-1.7c0.4-0.5,0.9-0.9,1.5-1.2c0.6-0.3,1.3-0.4,2.1-0.4
			c0.3,0,0.6,0,0.9,0.1c0.3,0.1,0.6,0.1,0.9,0.3c0.3,0.1,0.6,0.3,0.9,0.5c0.3,0.2,0.5,0.5,0.7,0.8h0v-1.4h1.7v14.3H356.5z
			 M350.4,974.3c0.1,0.5,0.3,0.9,0.6,1.2c0.3,0.4,0.6,0.6,1,0.9c0.4,0.2,0.9,0.3,1.4,0.3c0.6,0,1.1-0.1,1.5-0.3
			c0.4-0.2,0.7-0.5,1-0.9c0.3-0.4,0.4-0.8,0.5-1.2s0.2-0.9,0.2-1.4c0-0.5-0.1-1-0.2-1.5c-0.1-0.5-0.3-0.9-0.6-1.2
			c-0.3-0.4-0.6-0.7-1-0.9c-0.4-0.2-0.9-0.3-1.5-0.3c-0.6,0-1.1,0.1-1.5,0.3c-0.4,0.2-0.7,0.5-1,0.9c-0.2,0.4-0.4,0.8-0.5,1.3
			c-0.1,0.5-0.2,1-0.2,1.5C350.2,973.4,350.3,973.9,350.4,974.3z"/>
		<path class="st2" d="M367.8,978v-1.6h0c-0.4,0.6-0.8,1.1-1.4,1.4c-0.6,0.3-1.2,0.5-2,0.5c-0.7,0-1.2-0.1-1.7-0.3
			c-0.5-0.2-0.8-0.4-1.1-0.8c-0.3-0.3-0.5-0.7-0.6-1.2c-0.1-0.5-0.2-1-0.2-1.5v-6.8h1.7v7c0,0.6,0.2,1.1,0.6,1.5
			c0.4,0.4,0.9,0.6,1.5,0.6c0.5,0,1-0.1,1.4-0.2c0.4-0.2,0.7-0.4,0.9-0.7s0.4-0.6,0.6-1c0.1-0.4,0.2-0.8,0.2-1.3v-5.8h1.7V978H367.8
			z"/>
		<path class="st2" d="M381.1,978c-0.3,0.2-0.7,0.3-1.2,0.3c-0.4,0-0.8-0.1-1.1-0.4c-0.3-0.2-0.4-0.6-0.4-1.2c-0.5,0.6-1,1-1.6,1.2
			c-0.6,0.2-1.3,0.4-2,0.4c-0.5,0-0.9-0.1-1.3-0.2c-0.4-0.1-0.8-0.3-1.1-0.5c-0.3-0.2-0.6-0.5-0.7-0.9c-0.2-0.4-0.3-0.8-0.3-1.3
			c0-0.6,0.1-1.1,0.3-1.4s0.5-0.7,0.8-0.9c0.3-0.2,0.7-0.4,1.1-0.5c0.4-0.1,0.8-0.2,1.3-0.3c0.5-0.1,0.9-0.2,1.3-0.2
			c0.4,0,0.8-0.1,1.1-0.2c0.3-0.1,0.6-0.2,0.8-0.4c0.2-0.2,0.3-0.4,0.3-0.7c0-0.4-0.1-0.7-0.2-0.9c-0.1-0.2-0.3-0.4-0.5-0.5
			c-0.2-0.1-0.5-0.2-0.7-0.2c-0.3,0-0.5-0.1-0.8-0.1c-0.7,0-1.3,0.1-1.8,0.4s-0.7,0.8-0.8,1.5h-1.7c0-0.6,0.2-1.2,0.4-1.6
			c0.2-0.4,0.6-0.8,1-1.1s0.9-0.5,1.4-0.6c0.5-0.1,1.1-0.2,1.6-0.2c0.5,0,0.9,0,1.4,0.1c0.5,0.1,0.9,0.2,1.2,0.4
			c0.4,0.2,0.7,0.5,0.9,0.9c0.2,0.4,0.3,0.9,0.3,1.5v5.3c0,0.4,0,0.7,0.1,0.9c0,0.2,0.2,0.3,0.5,0.3c0.1,0,0.3,0,0.5-0.1V978z
			 M378.3,972.7c-0.2,0.2-0.5,0.3-0.8,0.3s-0.7,0.1-1.1,0.2c-0.4,0-0.8,0.1-1.1,0.2c-0.4,0.1-0.7,0.2-1,0.3
			c-0.3,0.1-0.6,0.3-0.8,0.6c-0.2,0.2-0.3,0.6-0.3,1c0,0.3,0.1,0.5,0.2,0.7s0.3,0.3,0.4,0.5c0.2,0.1,0.4,0.2,0.6,0.3
			c0.2,0.1,0.5,0.1,0.8,0.1c0.6,0,1-0.1,1.4-0.2s0.7-0.3,1-0.6s0.4-0.5,0.6-0.8c0.1-0.3,0.2-0.5,0.2-0.8V972.7z"/>
		<path class="st2" d="M395.7,965.7c-0.6-0.5-1.4-0.7-2.4-0.7c-0.4,0-0.8,0-1.2,0.1c-0.4,0.1-0.7,0.2-1,0.4
			c-0.3,0.2-0.5,0.4-0.7,0.8c-0.2,0.3-0.3,0.7-0.3,1.2c0,0.4,0.1,0.8,0.4,1.1c0.3,0.3,0.6,0.5,1,0.7c0.4,0.2,0.9,0.3,1.5,0.4
			c0.5,0.1,1.1,0.2,1.7,0.4c0.6,0.1,1.1,0.3,1.7,0.5c0.5,0.2,1,0.4,1.5,0.7c0.4,0.3,0.8,0.7,1,1.2c0.3,0.5,0.4,1.1,0.4,1.8
			c0,0.8-0.2,1.4-0.5,2s-0.8,1-1.3,1.3c-0.5,0.3-1.1,0.6-1.8,0.7c-0.7,0.2-1.3,0.2-2,0.2c-0.8,0-1.6-0.1-2.3-0.3
			c-0.7-0.2-1.3-0.5-1.9-0.9c-0.5-0.4-1-0.9-1.3-1.6c-0.3-0.6-0.5-1.4-0.5-2.2h1.8c0,0.6,0.1,1.1,0.4,1.5c0.2,0.4,0.5,0.8,0.9,1.1
			s0.8,0.5,1.3,0.6c0.5,0.1,1,0.2,1.6,0.2c0.4,0,0.9,0,1.3-0.1c0.4-0.1,0.8-0.2,1.2-0.4c0.3-0.2,0.6-0.5,0.8-0.8
			c0.2-0.3,0.3-0.8,0.3-1.3c0-0.5-0.1-0.9-0.4-1.2c-0.3-0.3-0.6-0.6-1-0.8c-0.4-0.2-0.9-0.4-1.5-0.5s-1.1-0.2-1.7-0.4
			c-0.6-0.1-1.1-0.3-1.7-0.4c-0.5-0.2-1-0.4-1.5-0.7s-0.8-0.6-1-1.1c-0.3-0.4-0.4-1-0.4-1.6c0-0.7,0.1-1.3,0.4-1.9
			c0.3-0.5,0.7-1,1.2-1.3c0.5-0.3,1-0.6,1.7-0.8c0.6-0.2,1.3-0.2,1.9-0.2c0.7,0,1.4,0.1,2,0.3c0.6,0.2,1.2,0.4,1.6,0.8
			s0.8,0.8,1.1,1.4s0.4,1.2,0.5,2h-1.8C396.7,966.9,396.3,966.1,395.7,965.7z"/>
		<path class="st2" d="M405.6,967.7v1.5h-2.1v6.4c0,0.2,0,0.4,0,0.5c0,0.1,0.1,0.2,0.2,0.3c0.1,0.1,0.2,0.1,0.4,0.1
			c0.2,0,0.4,0,0.6,0h0.8v1.5h-1.3c-0.4,0-0.8,0-1.1-0.1c-0.3-0.1-0.6-0.2-0.8-0.3s-0.3-0.4-0.4-0.7c-0.1-0.3-0.1-0.7-0.1-1.2v-6.6
			h-1.8v-1.5h1.8v-3.1h1.7v3.1H405.6z"/>
		<path class="st2" d="M416.7,978c-0.3,0.2-0.7,0.3-1.2,0.3c-0.4,0-0.8-0.1-1.1-0.4c-0.3-0.2-0.4-0.6-0.4-1.2c-0.5,0.6-1,1-1.6,1.2
			c-0.6,0.2-1.3,0.4-2,0.4c-0.5,0-0.9-0.1-1.3-0.2c-0.4-0.1-0.8-0.3-1.1-0.5c-0.3-0.2-0.6-0.5-0.7-0.9c-0.2-0.4-0.3-0.8-0.3-1.3
			c0-0.6,0.1-1.1,0.3-1.4s0.5-0.7,0.8-0.9c0.3-0.2,0.7-0.4,1.1-0.5c0.4-0.1,0.8-0.2,1.3-0.3c0.5-0.1,0.9-0.2,1.3-0.2
			c0.4,0,0.8-0.1,1.1-0.2c0.3-0.1,0.6-0.2,0.8-0.4c0.2-0.2,0.3-0.4,0.3-0.7c0-0.4-0.1-0.7-0.2-0.9c-0.1-0.2-0.3-0.4-0.5-0.5
			c-0.2-0.1-0.5-0.2-0.7-0.2c-0.3,0-0.5-0.1-0.8-0.1c-0.7,0-1.3,0.1-1.8,0.4s-0.7,0.8-0.8,1.5h-1.7c0-0.6,0.2-1.2,0.4-1.6
			c0.2-0.4,0.6-0.8,1-1.1s0.9-0.5,1.4-0.6c0.5-0.1,1.1-0.2,1.6-0.2c0.5,0,0.9,0,1.4,0.1c0.5,0.1,0.9,0.2,1.2,0.4
			c0.4,0.2,0.7,0.5,0.9,0.9c0.2,0.4,0.3,0.9,0.3,1.5v5.3c0,0.4,0,0.7,0.1,0.9c0,0.2,0.2,0.3,0.5,0.3c0.1,0,0.3,0,0.5-0.1V978z
			 M413.9,972.7c-0.2,0.2-0.5,0.3-0.8,0.3s-0.7,0.1-1.1,0.2c-0.4,0-0.8,0.1-1.1,0.2c-0.4,0.1-0.7,0.2-1,0.3
			c-0.3,0.1-0.6,0.3-0.8,0.6c-0.2,0.2-0.3,0.6-0.3,1c0,0.3,0.1,0.5,0.2,0.7s0.3,0.3,0.4,0.5c0.2,0.1,0.4,0.2,0.6,0.3
			c0.2,0.1,0.5,0.1,0.8,0.1c0.6,0,1-0.1,1.4-0.2s0.7-0.3,1-0.6s0.4-0.5,0.6-0.8c0.1-0.3,0.2-0.5,0.2-0.8V972.7z"/>
		<path class="st2" d="M422.7,967.7v1.5h-2.1v6.4c0,0.2,0,0.4,0,0.5c0,0.1,0.1,0.2,0.2,0.3c0.1,0.1,0.2,0.1,0.4,0.1
			c0.2,0,0.4,0,0.6,0h0.8v1.5h-1.3c-0.4,0-0.8,0-1.1-0.1c-0.3-0.1-0.6-0.2-0.8-0.3s-0.3-0.4-0.4-0.7c-0.1-0.3-0.1-0.7-0.1-1.2v-6.6
			h-1.8v-1.5h1.8v-3.1h1.7v3.1H422.7z"/>
		<path class="st2" d="M431.9,977.3c-0.8,0.6-1.7,0.9-2.9,0.9c-0.8,0-1.5-0.1-2.2-0.4c-0.6-0.3-1.1-0.6-1.5-1.1
			c-0.4-0.5-0.7-1.1-0.9-1.7c-0.2-0.7-0.3-1.4-0.3-2.2c0-0.8,0.1-1.5,0.4-2.2c0.2-0.7,0.6-1.2,1-1.7c0.4-0.5,0.9-0.9,1.5-1.1
			s1.2-0.4,2-0.4c0.9,0,1.7,0.2,2.3,0.6c0.6,0.4,1.1,0.9,1.5,1.5c0.4,0.6,0.6,1.2,0.8,1.9c0.1,0.7,0.2,1.4,0.2,2h-7.7
			c0,0.5,0,0.9,0.2,1.3c0.1,0.4,0.3,0.8,0.6,1.1s0.6,0.6,1,0.8c0.4,0.2,0.9,0.3,1.5,0.3c0.7,0,1.3-0.2,1.8-0.5
			c0.5-0.3,0.8-0.8,0.9-1.5h1.7C433.1,975.9,432.6,976.8,431.9,977.3z M431.4,970.7c-0.2-0.4-0.4-0.7-0.6-0.9
			c-0.3-0.3-0.6-0.5-0.9-0.6c-0.4-0.2-0.7-0.2-1.2-0.2c-0.4,0-0.8,0.1-1.2,0.2c-0.4,0.2-0.7,0.4-0.9,0.6s-0.5,0.6-0.6,0.9
			c-0.1,0.4-0.2,0.7-0.3,1.1h5.9C431.7,971.4,431.6,971.1,431.4,970.7z"/>
		<path class="st2" d="M436.6,975.7c0.2,0.3,0.4,0.5,0.6,0.6c0.3,0.2,0.6,0.3,0.9,0.3c0.3,0.1,0.7,0.1,1,0.1c0.3,0,0.5,0,0.8-0.1
			c0.3,0,0.6-0.1,0.8-0.2c0.2-0.1,0.5-0.3,0.6-0.5c0.2-0.2,0.2-0.5,0.2-0.8c0-0.4-0.2-0.8-0.5-1c-0.3-0.2-0.8-0.4-1.2-0.5
			c-0.5-0.1-1-0.3-1.6-0.4c-0.6-0.1-1.1-0.3-1.6-0.5s-0.9-0.5-1.2-0.9s-0.5-0.9-0.5-1.6c0-0.5,0.1-1,0.4-1.3
			c0.2-0.4,0.5-0.7,0.9-0.9s0.8-0.4,1.2-0.5s0.9-0.2,1.4-0.2c0.6,0,1.1,0,1.6,0.2c0.5,0.1,0.9,0.3,1.3,0.5c0.4,0.2,0.7,0.6,0.9,1
			c0.2,0.4,0.4,0.9,0.4,1.6h-1.7c0-0.3-0.1-0.6-0.3-0.8c-0.1-0.2-0.3-0.4-0.6-0.5c-0.2-0.1-0.5-0.2-0.8-0.3
			c-0.3-0.1-0.5-0.1-0.8-0.1c-0.3,0-0.5,0-0.8,0.1c-0.3,0-0.5,0.1-0.7,0.2c-0.2,0.1-0.4,0.2-0.5,0.4c-0.1,0.2-0.2,0.4-0.2,0.7
			c0,0.3,0.1,0.5,0.3,0.7c0.2,0.2,0.5,0.4,0.8,0.5c0.3,0.1,0.7,0.2,1.1,0.3c0.4,0.1,0.8,0.2,1.2,0.3c0.4,0.1,0.8,0.2,1.2,0.3
			c0.4,0.1,0.8,0.3,1.1,0.5c0.3,0.2,0.6,0.5,0.8,0.8s0.3,0.7,0.3,1.2c0,0.6-0.1,1.1-0.4,1.6c-0.3,0.4-0.6,0.7-1,1
			c-0.4,0.3-0.9,0.4-1.4,0.5c-0.5,0.1-1,0.1-1.6,0.1c-0.6,0-1.1-0.1-1.6-0.2s-1-0.3-1.4-0.6s-0.7-0.6-1-1.1c-0.2-0.4-0.4-1-0.4-1.6
			h1.7C436.3,975.1,436.4,975.4,436.6,975.7z"/>
		<path class="st2" d="M459.7,965.7c-0.7-0.5-1.6-0.8-2.6-0.8c-0.9,0-1.6,0.2-2.2,0.5c-0.6,0.3-1.1,0.8-1.5,1.3
			c-0.4,0.5-0.7,1.2-0.9,1.8c-0.2,0.7-0.3,1.4-0.3,2.2c0,0.8,0.1,1.6,0.3,2.3c0.2,0.7,0.5,1.4,0.9,1.9c0.4,0.5,0.9,1,1.5,1.3
			c0.6,0.3,1.3,0.5,2.2,0.5c0.6,0,1.2-0.1,1.7-0.3c0.5-0.2,0.9-0.5,1.3-0.9c0.4-0.4,0.6-0.8,0.8-1.3c0.2-0.5,0.3-1.1,0.4-1.6h1.9
			c-0.2,1.8-0.8,3.2-1.9,4.2s-2.5,1.5-4.3,1.5c-1.1,0-2.1-0.2-2.9-0.6c-0.8-0.4-1.5-0.9-2.1-1.6c-0.5-0.7-1-1.5-1.2-2.4
			c-0.3-0.9-0.4-1.9-0.4-2.9s0.1-2,0.4-2.9c0.3-0.9,0.7-1.7,1.3-2.4s1.3-1.2,2.1-1.6c0.8-0.4,1.8-0.6,2.9-0.6c0.7,0,1.5,0.1,2.1,0.3
			c0.7,0.2,1.3,0.5,1.8,0.9c0.5,0.4,1,0.9,1.3,1.5s0.6,1.2,0.7,2h-1.9C460.9,967,460.5,966.2,459.7,965.7z"/>
		<path class="st2" d="M469.7,967.7v1.5h-2.1v6.4c0,0.2,0,0.4,0,0.5c0,0.1,0.1,0.2,0.2,0.3c0.1,0.1,0.2,0.1,0.4,0.1
			c0.2,0,0.4,0,0.6,0h0.8v1.5h-1.3c-0.4,0-0.8,0-1.1-0.1c-0.3-0.1-0.6-0.2-0.8-0.3s-0.3-0.4-0.4-0.7c-0.1-0.3-0.1-0.7-0.1-1.2v-6.6
			h-1.8v-1.5h1.8v-3.1h1.7v3.1H469.7z"/>
		<path class="st2" d="M474.2,975.8v2.2H472v-2.2H474.2z"/>
		<path class="st2" d="M491.6,965.7c-0.7-0.5-1.6-0.8-2.6-0.8c-0.9,0-1.6,0.2-2.2,0.5c-0.6,0.3-1.1,0.8-1.5,1.3
			c-0.4,0.5-0.7,1.2-0.9,1.8c-0.2,0.7-0.3,1.4-0.3,2.2c0,0.8,0.1,1.6,0.3,2.3c0.2,0.7,0.5,1.4,0.9,1.9c0.4,0.5,0.9,1,1.5,1.3
			c0.6,0.3,1.3,0.5,2.2,0.5c0.6,0,1.2-0.1,1.7-0.3c0.5-0.2,0.9-0.5,1.3-0.9c0.4-0.4,0.6-0.8,0.8-1.3c0.2-0.5,0.3-1.1,0.4-1.6h1.9
			c-0.2,1.8-0.8,3.2-1.9,4.2s-2.5,1.5-4.3,1.5c-1.1,0-2.1-0.2-2.9-0.6s-1.5-0.9-2.1-1.6c-0.5-0.7-1-1.5-1.2-2.4
			c-0.3-0.9-0.4-1.9-0.4-2.9s0.1-2,0.4-2.9c0.3-0.9,0.7-1.7,1.3-2.4c0.6-0.7,1.3-1.2,2.1-1.6c0.8-0.4,1.8-0.6,2.9-0.6
			c0.7,0,1.5,0.1,2.1,0.3c0.7,0.2,1.3,0.5,1.8,0.9c0.5,0.4,1,0.9,1.3,1.5s0.6,1.2,0.7,2H493C492.8,967,492.3,966.2,491.6,965.7z"/>
		<path class="st2" d="M496.9,970.7c0.2-0.7,0.5-1.2,1-1.7c0.4-0.5,1-0.9,1.6-1.2c0.6-0.3,1.3-0.4,2.2-0.4c0.8,0,1.5,0.1,2.2,0.4
			c0.6,0.3,1.1,0.7,1.6,1.2s0.7,1.1,1,1.7s0.3,1.4,0.3,2.1s-0.1,1.5-0.3,2.1s-0.5,1.2-1,1.7c-0.4,0.5-1,0.9-1.6,1.1
			c-0.6,0.3-1.3,0.4-2.2,0.4c-0.8,0-1.5-0.1-2.2-0.4c-0.6-0.3-1.2-0.7-1.6-1.1c-0.4-0.5-0.7-1.1-1-1.7s-0.3-1.4-0.3-2.1
			S496.7,971.4,496.9,970.7z M498.6,974.5c0.2,0.5,0.4,0.9,0.7,1.2c0.3,0.3,0.6,0.6,1,0.8c0.4,0.2,0.8,0.3,1.2,0.3
			c0.4,0,0.9-0.1,1.2-0.3c0.4-0.2,0.7-0.4,1-0.8c0.3-0.3,0.5-0.7,0.7-1.2c0.2-0.5,0.2-1,0.2-1.7c0-0.6-0.1-1.2-0.2-1.7
			c-0.2-0.5-0.4-0.9-0.7-1.2c-0.3-0.3-0.6-0.6-1-0.8c-0.4-0.2-0.8-0.3-1.2-0.3c-0.4,0-0.9,0.1-1.2,0.3c-0.4,0.2-0.7,0.4-1,0.8
			c-0.3,0.3-0.5,0.7-0.7,1.2c-0.2,0.5-0.2,1-0.2,1.7C498.4,973.5,498.5,974,498.6,974.5z"/>
		<path class="st2" d="M510.2,967.7v1.6h0c0.7-1.3,1.8-1.9,3.4-1.9c0.7,0,1.2,0.1,1.7,0.3s0.8,0.4,1.1,0.8c0.3,0.3,0.5,0.7,0.6,1.2
			s0.2,1,0.2,1.5v6.8h-1.7v-7c0-0.6-0.2-1.1-0.6-1.5c-0.4-0.4-0.9-0.6-1.5-0.6c-0.5,0-1,0.1-1.3,0.2c-0.4,0.2-0.7,0.4-1,0.7
			c-0.3,0.3-0.4,0.6-0.6,1c-0.1,0.4-0.2,0.8-0.2,1.3v5.8h-1.7v-10.3H510.2z"/>
		<path class="st2" d="M521.3,967.7v2.2h0c0.4-0.8,0.9-1.5,1.5-1.9c0.6-0.4,1.4-0.6,2.3-0.6v1.8c-0.7,0-1.3,0.1-1.7,0.3
			s-0.9,0.5-1.2,0.8c-0.3,0.4-0.5,0.8-0.6,1.3c-0.1,0.5-0.2,1.1-0.2,1.8v4.6h-1.7v-10.3H521.3z"/>
		<path class="st2" d="M525.8,970.7c0.2-0.7,0.5-1.2,1-1.7s1-0.9,1.6-1.2c0.6-0.3,1.3-0.4,2.2-0.4c0.8,0,1.5,0.1,2.2,0.4
			s1.1,0.7,1.6,1.2c0.4,0.5,0.7,1.1,1,1.7c0.2,0.7,0.3,1.4,0.3,2.1s-0.1,1.5-0.3,2.1c-0.2,0.7-0.5,1.2-1,1.7
			c-0.4,0.5-0.9,0.9-1.6,1.1c-0.6,0.3-1.3,0.4-2.2,0.4c-0.8,0-1.5-0.1-2.2-0.4c-0.6-0.3-1.2-0.7-1.6-1.1c-0.4-0.5-0.7-1.1-1-1.7
			s-0.3-1.4-0.3-2.1S525.6,971.4,525.8,970.7z M527.5,974.5c0.2,0.5,0.4,0.9,0.7,1.2c0.3,0.3,0.6,0.6,1,0.8c0.4,0.2,0.8,0.3,1.2,0.3
			s0.9-0.1,1.2-0.3c0.4-0.2,0.7-0.4,1-0.8c0.3-0.3,0.5-0.7,0.7-1.2c0.2-0.5,0.2-1,0.2-1.7c0-0.6-0.1-1.2-0.2-1.7
			c-0.2-0.5-0.4-0.9-0.7-1.2c-0.3-0.3-0.6-0.6-1-0.8c-0.4-0.2-0.8-0.3-1.2-0.3s-0.9,0.1-1.2,0.3c-0.4,0.2-0.7,0.4-1,0.8
			c-0.3,0.3-0.5,0.7-0.7,1.2c-0.2,0.5-0.2,1-0.2,1.7C527.3,973.5,527.4,974,527.5,974.5z"/>
		<path class="st2" d="M544.8,977.3c-0.8,0.6-1.7,0.9-2.9,0.9c-0.8,0-1.5-0.1-2.2-0.4s-1.1-0.6-1.5-1.1c-0.4-0.5-0.7-1.1-0.9-1.7
			c-0.2-0.7-0.3-1.4-0.3-2.2c0-0.8,0.1-1.5,0.4-2.2c0.2-0.7,0.6-1.2,1-1.7c0.4-0.5,0.9-0.9,1.5-1.1c0.6-0.3,1.2-0.4,1.9-0.4
			c0.9,0,1.7,0.2,2.3,0.6c0.6,0.4,1.1,0.9,1.5,1.5s0.6,1.2,0.8,1.9c0.1,0.7,0.2,1.4,0.2,2h-7.7c0,0.5,0,0.9,0.2,1.3
			c0.1,0.4,0.3,0.8,0.6,1.1c0.3,0.3,0.6,0.6,1,0.8s0.9,0.3,1.5,0.3c0.7,0,1.3-0.2,1.8-0.5c0.5-0.3,0.8-0.8,0.9-1.5h1.7
			C546.1,975.9,545.6,976.8,544.8,977.3z M544.4,970.7c-0.2-0.4-0.4-0.7-0.6-0.9c-0.3-0.3-0.6-0.5-0.9-0.6s-0.7-0.2-1.2-0.2
			c-0.4,0-0.8,0.1-1.2,0.2c-0.4,0.2-0.7,0.4-0.9,0.6c-0.3,0.3-0.5,0.6-0.6,0.9c-0.1,0.4-0.2,0.7-0.3,1.1h5.9
			C544.7,971.4,544.6,971.1,544.4,970.7z"/>
		<path class="st2" d="M552.6,965.3v-1.6H564v1.6h-4.8V978h-1.9v-12.7H552.6z"/>
		<path class="st2" d="M564.3,963.7h2.3l3.6,5.6l3.7-5.6h2.1l-4.7,6.9l5,7.3h-2.3l-3.8-5.9l-4,5.9H564l5-7.3L564.3,963.7z"/>
		<path class="st2" d="M590,968c-0.6,1-1.2,2-1.7,3.1c-0.5,1.1-0.9,2.2-1.2,3.4c-0.3,1.2-0.5,2.3-0.6,3.4h-1.9
			c0.1-1.2,0.3-2.4,0.6-3.5c0.3-1.1,0.7-2.2,1.2-3.3c0.5-1,1.1-2,1.7-3c0.6-0.9,1.3-1.8,2.1-2.6h-7.4v-1.6h9.2v1.5
			C591.3,966.2,590.6,967.1,590,968z"/>
		<path class="st2" d="M601.1,968c-0.6,1-1.2,2-1.7,3.1c-0.5,1.1-0.9,2.2-1.2,3.4c-0.3,1.2-0.5,2.3-0.6,3.4h-1.9
			c0.1-1.2,0.3-2.4,0.6-3.5c0.3-1.1,0.7-2.2,1.2-3.3c0.5-1,1.1-2,1.7-3s1.3-1.8,2.1-2.6h-7.4v-1.6h9.2v1.5
			C602.4,966.2,601.7,967.1,601.1,968z"/>
		<path class="st2" d="M608.6,969.9c0.1,0,0.1,0,0.2,0h0.4c0.4,0,0.7,0,1-0.2c0.3-0.1,0.6-0.2,0.9-0.4c0.2-0.2,0.4-0.4,0.6-0.7
			c0.1-0.3,0.2-0.6,0.2-1c0-0.8-0.2-1.3-0.7-1.7s-1.1-0.6-1.8-0.6c-0.5,0-0.8,0.1-1.2,0.2c-0.3,0.2-0.6,0.4-0.8,0.7
			c-0.2,0.3-0.4,0.6-0.5,1c-0.1,0.4-0.2,0.8-0.2,1.2h-1.7c0-0.7,0.1-1.3,0.3-1.9s0.5-1,0.8-1.4c0.4-0.4,0.8-0.7,1.4-0.9
			s1.2-0.3,1.9-0.3c0.6,0,1.2,0.1,1.7,0.2c0.5,0.2,1,0.4,1.4,0.7s0.7,0.7,0.9,1.2c0.2,0.5,0.3,1,0.3,1.7c0,0.6-0.2,1.2-0.6,1.7
			s-0.8,0.9-1.4,1.1v0c0.9,0.2,1.5,0.6,1.9,1.2c0.4,0.6,0.6,1.4,0.6,2.2c0,0.7-0.1,1.3-0.4,1.9s-0.6,1-1,1.3c-0.4,0.4-1,0.6-1.5,0.8
			c-0.6,0.2-1.2,0.3-1.9,0.3c-0.7,0-1.4-0.1-2-0.3c-0.6-0.2-1.1-0.5-1.5-0.9c-0.4-0.4-0.7-0.9-1-1.5s-0.3-1.2-0.3-2h1.7
			c0,0.9,0.3,1.7,0.8,2.2c0.5,0.6,1.2,0.9,2.2,0.9c0.4,0,0.8-0.1,1.2-0.2c0.4-0.1,0.7-0.3,1-0.5c0.3-0.2,0.5-0.5,0.7-0.9
			c0.2-0.3,0.2-0.7,0.2-1.2c0-0.4-0.1-0.8-0.2-1.2c-0.2-0.3-0.4-0.6-0.6-0.9c-0.3-0.2-0.6-0.4-1-0.5c-0.4-0.1-0.8-0.2-1.2-0.2
			c-0.4,0-0.7,0-1,0.1v-1.4C608.5,969.9,608.5,969.9,608.6,969.9z"/>
		<path class="st2" d="M616.8,965.9c0.2-0.4,0.5-0.8,0.9-1.1s0.8-0.5,1.3-0.7c0.5-0.2,1-0.2,1.6-0.2c0.8,0,1.4,0.1,2,0.3
			c0.5,0.2,1,0.5,1.3,0.8s0.6,0.7,0.8,1.2c0.2,0.4,0.2,0.9,0.2,1.3c0,0.6-0.2,1.2-0.5,1.8c-0.4,0.5-0.8,0.9-1.4,1.2
			c0.9,0.3,1.5,0.7,1.9,1.3c0.4,0.6,0.6,1.3,0.6,2.2c0,0.7-0.1,1.3-0.4,1.8s-0.6,1-1,1.4c-0.4,0.4-0.9,0.6-1.5,0.8s-1.2,0.3-1.8,0.3
			c-0.7,0-1.3-0.1-1.9-0.3c-0.6-0.2-1.1-0.4-1.5-0.8c-0.4-0.4-0.8-0.8-1-1.4s-0.4-1.2-0.4-1.9c0-0.8,0.2-1.6,0.6-2.2
			c0.4-0.6,1-1.1,1.8-1.4c-0.6-0.2-1.1-0.6-1.4-1.2c-0.4-0.5-0.5-1.1-0.5-1.8C616.5,966.9,616.6,966.3,616.8,965.9z M618.6,976
			c0.6,0.5,1.3,0.7,2.2,0.7c0.4,0,0.8-0.1,1.2-0.2c0.4-0.1,0.7-0.3,0.9-0.6c0.3-0.2,0.5-0.5,0.6-0.9c0.1-0.3,0.2-0.7,0.2-1.1
			c0-0.4-0.1-0.7-0.2-1.1s-0.4-0.6-0.6-0.9c-0.3-0.2-0.6-0.4-0.9-0.6c-0.4-0.1-0.7-0.2-1.1-0.2c-0.4,0-0.8,0.1-1.2,0.2
			c-0.4,0.1-0.7,0.3-1,0.5c-0.3,0.2-0.5,0.5-0.6,0.9c-0.2,0.3-0.2,0.7-0.2,1.1C617.8,974.9,618,975.5,618.6,976z M618.5,968.5
			c0.1,0.3,0.3,0.5,0.5,0.7c0.2,0.2,0.5,0.3,0.8,0.4c0.3,0.1,0.6,0.1,1,0.1c0.7,0,1.2-0.2,1.7-0.6c0.4-0.4,0.7-1,0.7-1.7
			s-0.2-1.3-0.7-1.6c-0.4-0.4-1-0.5-1.7-0.5c-0.3,0-0.7,0-1,0.1c-0.3,0.1-0.6,0.2-0.8,0.4c-0.2,0.2-0.4,0.4-0.5,0.7
			c-0.1,0.3-0.2,0.6-0.2,0.9C618.3,967.9,618.3,968.2,618.5,968.5z"/>
		<path class="st2" d="M630,965.6l-0.8,4.1l0,0c0.3-0.3,0.7-0.6,1.2-0.8s1-0.2,1.5-0.2c0.6,0,1.2,0.1,1.8,0.3c0.6,0.2,1,0.5,1.5,0.9
			c0.4,0.4,0.7,0.9,1,1.5c0.2,0.6,0.4,1.3,0.4,2.1c0,0.6-0.1,1.2-0.3,1.8c-0.2,0.6-0.5,1.1-0.9,1.5c-0.4,0.4-0.9,0.8-1.5,1
			c-0.6,0.3-1.3,0.4-2.2,0.4c-0.6,0-1.2-0.1-1.7-0.3c-0.5-0.2-1-0.4-1.4-0.8c-0.4-0.3-0.7-0.8-1-1.3s-0.4-1.1-0.4-1.7h1.7
			c0,0.4,0.1,0.7,0.3,1c0.2,0.3,0.4,0.6,0.6,0.8c0.3,0.2,0.6,0.4,0.9,0.5c0.4,0.1,0.7,0.2,1.2,0.2c0.4,0,0.8-0.1,1.1-0.2
			c0.4-0.1,0.7-0.4,1-0.6c0.3-0.3,0.5-0.6,0.7-1.1s0.2-0.9,0.2-1.5c0-0.5-0.1-0.9-0.2-1.3c-0.2-0.4-0.4-0.7-0.7-1
			c-0.3-0.3-0.6-0.5-1-0.7c-0.4-0.2-0.8-0.2-1.3-0.2c-0.6,0-1.1,0.1-1.5,0.4c-0.4,0.2-0.8,0.6-1.1,1l-1.5-0.1l1.3-7.4h7v1.5H630z"/>
	</g>
	<g class="st1">
		<path class="st2" d="M258,989.3v-1.6h11.4v1.6h-4.8v12.7h-1.9v-12.7H258z"/>
		<path class="st2" d="M275.9,1001.3c-0.8,0.6-1.7,0.9-2.9,0.9c-0.8,0-1.5-0.1-2.2-0.4c-0.6-0.3-1.1-0.6-1.5-1.1
			c-0.4-0.5-0.7-1.1-0.9-1.7c-0.2-0.7-0.3-1.4-0.3-2.2c0-0.8,0.1-1.5,0.4-2.2c0.2-0.7,0.6-1.2,1-1.7c0.4-0.5,0.9-0.9,1.5-1.1
			s1.2-0.4,2-0.4c0.9,0,1.7,0.2,2.3,0.6c0.6,0.4,1.1,0.9,1.5,1.5c0.4,0.6,0.6,1.2,0.8,1.9c0.1,0.7,0.2,1.4,0.2,2h-7.7
			c0,0.5,0,0.9,0.2,1.3c0.1,0.4,0.3,0.8,0.6,1.1s0.6,0.6,1,0.8c0.4,0.2,0.9,0.3,1.5,0.3c0.7,0,1.3-0.2,1.8-0.5
			c0.5-0.3,0.8-0.8,0.9-1.5h1.7C277.1,999.9,276.6,1000.8,275.9,1001.3z M275.4,994.7c-0.2-0.4-0.4-0.7-0.6-0.9
			c-0.3-0.3-0.6-0.5-0.9-0.6c-0.4-0.2-0.7-0.2-1.2-0.2c-0.4,0-0.8,0.1-1.2,0.2c-0.4,0.2-0.7,0.4-0.9,0.6s-0.5,0.6-0.6,0.9
			c-0.1,0.4-0.2,0.7-0.3,1.1h5.9C275.7,995.4,275.6,995.1,275.4,994.7z"/>
		<path class="st2" d="M281.1,987.7v14.3h-1.7v-14.3H281.1z"/>
		<path class="st2" d="M284.1,993.9v-2.2h2.2v2.2H284.1z M286.3,999.8v2.2h-2.2v-2.2H286.3z"/>
		<path class="st2" d="M301.7,992c-0.6,1-1.2,2-1.7,3.1c-0.5,1.1-0.9,2.2-1.2,3.4c-0.3,1.2-0.5,2.3-0.6,3.4h-1.9
			c0.1-1.2,0.3-2.4,0.6-3.5c0.3-1.1,0.7-2.2,1.2-3.3c0.5-1,1.1-2,1.7-3c0.6-0.9,1.3-1.8,2.1-2.6h-7.4v-1.6h9.2v1.5
			C303,990.2,302.3,991.1,301.7,992z"/>
		<path class="st2" d="M310.1,1002v-10.2h-3.7v-1.4c0.5,0,0.9,0,1.4-0.1c0.5-0.1,0.9-0.2,1.2-0.4c0.4-0.2,0.7-0.5,0.9-0.8
			c0.3-0.3,0.4-0.8,0.5-1.3h1.3v14.2H310.1z"/>
		<path class="st2" d="M320.3,993.9c0.1,0,0.1,0,0.2,0h0.4c0.4,0,0.7,0,1-0.2c0.3-0.1,0.6-0.2,0.9-0.4c0.2-0.2,0.4-0.4,0.6-0.7
			c0.1-0.3,0.2-0.6,0.2-1c0-0.8-0.2-1.3-0.7-1.7s-1.1-0.6-1.8-0.6c-0.5,0-0.8,0.1-1.2,0.2c-0.3,0.2-0.6,0.4-0.8,0.7
			c-0.2,0.3-0.4,0.6-0.5,1c-0.1,0.4-0.2,0.8-0.2,1.2h-1.7c0-0.7,0.1-1.3,0.3-1.9s0.5-1,0.8-1.4c0.4-0.4,0.8-0.7,1.4-0.9
			s1.2-0.3,1.9-0.3c0.6,0,1.2,0.1,1.7,0.2c0.5,0.2,1,0.4,1.4,0.7s0.7,0.7,0.9,1.2c0.2,0.5,0.3,1,0.3,1.7c0,0.6-0.2,1.2-0.6,1.7
			c-0.4,0.5-0.8,0.9-1.4,1.1v0c0.9,0.2,1.5,0.6,1.9,1.2c0.4,0.6,0.6,1.4,0.6,2.2c0,0.7-0.1,1.3-0.4,1.9c-0.3,0.5-0.6,1-1.1,1.3
			c-0.4,0.4-1,0.6-1.5,0.8c-0.6,0.2-1.2,0.3-1.9,0.3c-0.7,0-1.4-0.1-2-0.3s-1.1-0.5-1.5-0.9s-0.7-0.9-0.9-1.5
			c-0.2-0.6-0.3-1.2-0.3-2h1.7c0,0.9,0.3,1.7,0.8,2.2c0.5,0.6,1.2,0.9,2.2,0.9c0.4,0,0.8-0.1,1.2-0.2c0.4-0.1,0.7-0.3,1-0.5
			c0.3-0.2,0.5-0.5,0.7-0.9c0.2-0.3,0.2-0.7,0.2-1.2c0-0.4-0.1-0.8-0.2-1.2c-0.2-0.3-0.4-0.6-0.6-0.9c-0.3-0.2-0.6-0.4-1-0.5
			s-0.8-0.2-1.2-0.2c-0.4,0-0.7,0-1,0.1v-1.4C320.2,993.9,320.3,993.9,320.3,993.9z"/>
		<path class="st2" d="M334.1,989.9c0.2-0.4,0.5-0.8,0.9-1.1s0.8-0.5,1.3-0.7c0.5-0.2,1-0.2,1.6-0.2c0.8,0,1.4,0.1,2,0.3
			c0.5,0.2,1,0.5,1.3,0.8s0.6,0.7,0.8,1.2c0.2,0.4,0.2,0.9,0.2,1.3c0,0.6-0.2,1.2-0.5,1.8c-0.4,0.5-0.8,0.9-1.4,1.2
			c0.9,0.3,1.5,0.7,1.9,1.3c0.4,0.6,0.6,1.3,0.6,2.2c0,0.7-0.1,1.3-0.4,1.8c-0.2,0.5-0.6,1-1,1.4c-0.4,0.4-0.9,0.6-1.5,0.8
			s-1.2,0.3-1.8,0.3c-0.7,0-1.3-0.1-1.9-0.3c-0.6-0.2-1.1-0.4-1.5-0.8c-0.4-0.4-0.8-0.8-1-1.4s-0.4-1.2-0.4-1.9
			c0-0.8,0.2-1.6,0.6-2.2c0.4-0.6,1-1.1,1.8-1.4c-0.6-0.2-1.1-0.6-1.4-1.2c-0.4-0.5-0.5-1.1-0.5-1.8
			C333.8,990.9,333.9,990.3,334.1,989.9z M335.9,1000c0.6,0.5,1.3,0.7,2.2,0.7c0.4,0,0.8-0.1,1.2-0.2c0.4-0.1,0.7-0.3,0.9-0.6
			c0.3-0.2,0.5-0.5,0.6-0.9s0.2-0.7,0.2-1.1c0-0.4-0.1-0.7-0.2-1.1s-0.4-0.6-0.6-0.9c-0.3-0.2-0.6-0.4-0.9-0.6
			c-0.4-0.1-0.7-0.2-1.1-0.2c-0.4,0-0.8,0.1-1.2,0.2c-0.4,0.1-0.7,0.3-1,0.5c-0.3,0.2-0.5,0.5-0.6,0.9c-0.2,0.3-0.2,0.7-0.2,1.1
			C335.1,998.9,335.4,999.5,335.9,1000z M335.8,992.5c0.1,0.3,0.3,0.5,0.5,0.7c0.2,0.2,0.5,0.3,0.8,0.4c0.3,0.1,0.6,0.1,1,0.1
			c0.7,0,1.2-0.2,1.7-0.6c0.4-0.4,0.7-1,0.7-1.7s-0.2-1.3-0.7-1.6c-0.4-0.4-1-0.5-1.7-0.5c-0.3,0-0.7,0-1,0.1
			c-0.3,0.1-0.6,0.2-0.8,0.4c-0.2,0.2-0.4,0.4-0.5,0.7c-0.1,0.3-0.2,0.6-0.2,0.9C335.6,991.9,335.6,992.2,335.8,992.5z"/>
		<path class="st2" d="M344.7,990.8c0.2-0.6,0.5-1.1,0.9-1.6c0.4-0.4,0.9-0.8,1.5-1c0.6-0.3,1.3-0.4,2-0.4c0.6,0,1.2,0.1,1.7,0.3
			s1,0.4,1.4,0.8s0.7,0.8,0.9,1.3c0.2,0.5,0.4,1.1,0.4,1.8c0,0.6-0.1,1.2-0.3,1.7c-0.2,0.5-0.4,0.9-0.8,1.3c-0.3,0.4-0.7,0.7-1.1,1
			c-0.4,0.3-0.8,0.6-1.3,0.9c-0.4,0.3-0.9,0.5-1.3,0.8s-0.8,0.5-1.2,0.8c-0.4,0.3-0.7,0.6-0.9,1c-0.3,0.3-0.4,0.7-0.5,1.2h7.3v1.5
			h-9.3c0.1-0.8,0.2-1.6,0.5-2.2c0.2-0.6,0.5-1.1,0.9-1.5c0.4-0.4,0.8-0.8,1.2-1.2c0.5-0.3,0.9-0.6,1.4-0.9c0.6-0.4,1.1-0.7,1.6-1
			c0.5-0.3,0.8-0.6,1.1-1c0.3-0.3,0.5-0.7,0.7-1c0.2-0.4,0.2-0.8,0.2-1.3c0-0.4-0.1-0.7-0.2-1c-0.1-0.3-0.3-0.6-0.6-0.8
			c-0.2-0.2-0.5-0.4-0.9-0.5c-0.3-0.1-0.7-0.2-1.1-0.2c-0.5,0-0.9,0.1-1.3,0.3c-0.4,0.2-0.6,0.5-0.9,0.8c-0.2,0.3-0.4,0.7-0.5,1.1
			s-0.1,0.8-0.1,1.3h-1.7C344.4,992.1,344.5,991.5,344.7,990.8z"/>
		<path class="st2" d="M362.3,989.9c-0.4-0.4-1-0.6-1.6-0.6c-0.7,0-1.3,0.2-1.7,0.5c-0.4,0.4-0.8,0.8-1,1.3s-0.4,1.1-0.5,1.8
			c-0.1,0.6-0.1,1.2-0.2,1.8l0,0c0.4-0.7,0.9-1.1,1.5-1.4c0.6-0.3,1.3-0.4,2-0.4c0.7,0,1.3,0.1,1.8,0.4s1,0.6,1.4,1s0.6,0.9,0.9,1.5
			c0.2,0.6,0.3,1.2,0.3,1.8c0,0.5-0.1,1.1-0.2,1.6c-0.2,0.6-0.4,1.1-0.8,1.5c-0.4,0.5-0.9,0.8-1.5,1.1c-0.6,0.3-1.4,0.5-2.2,0.5
			c-1.1,0-1.9-0.2-2.5-0.6s-1.1-1-1.5-1.6c-0.3-0.7-0.6-1.4-0.7-2.2c-0.1-0.8-0.2-1.6-0.2-2.3c0-1,0.1-1.9,0.2-2.8
			c0.2-0.9,0.5-1.7,0.9-2.4s0.9-1.3,1.6-1.7c0.7-0.4,1.5-0.6,2.5-0.6c1.2,0,2.1,0.3,2.8,0.9s1.1,1.5,1.2,2.7H363
			C362.9,990.8,362.7,990.3,362.3,989.9z M359.2,994.6c-0.4,0.2-0.7,0.4-0.9,0.7c-0.3,0.3-0.4,0.6-0.6,1c-0.1,0.4-0.2,0.8-0.2,1.2
			c0,0.4,0.1,0.9,0.2,1.2s0.3,0.7,0.6,1c0.2,0.3,0.6,0.5,0.9,0.7c0.4,0.2,0.8,0.2,1.2,0.2c0.5,0,0.9-0.1,1.2-0.2
			c0.4-0.2,0.6-0.4,0.9-0.7c0.2-0.3,0.4-0.6,0.6-1c0.1-0.4,0.2-0.8,0.2-1.2c0-0.4-0.1-0.9-0.2-1.2c-0.1-0.4-0.3-0.7-0.5-1
			c-0.2-0.3-0.5-0.5-0.9-0.7c-0.4-0.2-0.8-0.3-1.3-0.3S359.5,994.5,359.2,994.6z"/>
		<path class="st2" d="M366.9,990.8c0.2-0.6,0.5-1.1,0.9-1.6c0.4-0.4,0.9-0.8,1.5-1c0.6-0.3,1.3-0.4,2-0.4c0.6,0,1.2,0.1,1.7,0.3
			s1,0.4,1.4,0.8s0.7,0.8,0.9,1.3c0.2,0.5,0.4,1.1,0.4,1.8c0,0.6-0.1,1.2-0.3,1.7c-0.2,0.5-0.4,0.9-0.8,1.3c-0.3,0.4-0.7,0.7-1.1,1
			c-0.4,0.3-0.8,0.6-1.3,0.9c-0.4,0.3-0.9,0.5-1.3,0.8s-0.8,0.5-1.2,0.8c-0.4,0.3-0.7,0.6-0.9,1c-0.3,0.3-0.4,0.7-0.5,1.2h7.3v1.5
			h-9.3c0.1-0.8,0.2-1.6,0.5-2.2c0.2-0.6,0.5-1.1,0.9-1.5c0.4-0.4,0.8-0.8,1.2-1.2c0.5-0.3,0.9-0.6,1.4-0.9c0.6-0.4,1.1-0.7,1.6-1
			c0.5-0.3,0.8-0.6,1.1-1c0.3-0.3,0.5-0.7,0.7-1c0.2-0.4,0.2-0.8,0.2-1.3c0-0.4-0.1-0.7-0.2-1c-0.1-0.3-0.3-0.6-0.6-0.8
			c-0.2-0.2-0.5-0.4-0.9-0.5c-0.3-0.1-0.7-0.2-1.1-0.2c-0.5,0-0.9,0.1-1.3,0.3c-0.4,0.2-0.6,0.5-0.9,0.8c-0.2,0.3-0.4,0.7-0.5,1.1
			s-0.1,0.8-0.1,1.3h-1.7C366.7,992.1,366.8,991.5,366.9,990.8z"/>
		<path class="st2" d="M382.4,1002v-10.2h-3.7v-1.4c0.5,0,0.9,0,1.4-0.1c0.5-0.1,0.9-0.2,1.2-0.4c0.4-0.2,0.7-0.5,0.9-0.8
			c0.3-0.3,0.4-0.8,0.5-1.3h1.3v14.2H382.4z"/>
		<path class="st2" d="M389.7,989.9c0.2-0.4,0.5-0.8,0.9-1.1s0.8-0.5,1.3-0.7c0.5-0.2,1-0.2,1.6-0.2c0.8,0,1.4,0.1,2,0.3
			c0.5,0.2,1,0.5,1.3,0.8s0.6,0.7,0.8,1.2c0.2,0.4,0.2,0.9,0.2,1.3c0,0.6-0.2,1.2-0.5,1.8c-0.4,0.5-0.8,0.9-1.4,1.2
			c0.9,0.3,1.5,0.7,1.9,1.3c0.4,0.6,0.6,1.3,0.6,2.2c0,0.7-0.1,1.3-0.4,1.8c-0.2,0.5-0.6,1-1,1.4c-0.4,0.4-0.9,0.6-1.5,0.8
			s-1.2,0.3-1.8,0.3c-0.7,0-1.3-0.1-1.9-0.3c-0.6-0.2-1.1-0.4-1.5-0.8c-0.4-0.4-0.8-0.8-1-1.4s-0.4-1.2-0.4-1.9
			c0-0.8,0.2-1.6,0.6-2.2c0.4-0.6,1-1.1,1.8-1.4c-0.6-0.2-1.1-0.6-1.4-1.2c-0.4-0.5-0.5-1.1-0.5-1.8
			C389.4,990.9,389.5,990.3,389.7,989.9z M391.5,1000c0.6,0.5,1.3,0.7,2.2,0.7c0.4,0,0.8-0.1,1.2-0.2c0.4-0.1,0.7-0.3,0.9-0.6
			c0.3-0.2,0.5-0.5,0.6-0.9s0.2-0.7,0.2-1.1c0-0.4-0.1-0.7-0.2-1.1s-0.4-0.6-0.6-0.9c-0.3-0.2-0.6-0.4-0.9-0.6
			c-0.4-0.1-0.7-0.2-1.1-0.2c-0.4,0-0.8,0.1-1.2,0.2c-0.4,0.1-0.7,0.3-1,0.5c-0.3,0.2-0.5,0.5-0.6,0.9c-0.2,0.3-0.2,0.7-0.2,1.1
			C390.7,998.9,391,999.5,391.5,1000z M391.4,992.5c0.1,0.3,0.3,0.5,0.5,0.7c0.2,0.2,0.5,0.3,0.8,0.4c0.3,0.1,0.6,0.1,1,0.1
			c0.7,0,1.2-0.2,1.7-0.6c0.4-0.4,0.7-1,0.7-1.7s-0.2-1.3-0.7-1.6c-0.4-0.4-1-0.5-1.7-0.5c-0.3,0-0.7,0-1,0.1
			c-0.3,0.1-0.6,0.2-0.8,0.4c-0.2,0.2-0.4,0.4-0.5,0.7c-0.1,0.3-0.2,0.6-0.2,0.9C391.2,991.9,391.2,992.2,391.4,992.5z"/>
		<path class="st2" d="M404.6,1002v-10.2h-3.7v-1.4c0.5,0,0.9,0,1.4-0.1c0.5-0.1,0.9-0.2,1.2-0.4c0.4-0.2,0.7-0.5,0.9-0.8
			c0.3-0.3,0.4-0.8,0.5-1.3h1.3v14.2H404.6z"/>
	</g>
	<g class="st1">
		<path class="st2" d="M259.4,1013.8v-2.1h1.7v2.1H259.4z M261.1,1015.7v10.3h-1.7v-10.3H261.1z"/>
		<path class="st2" d="M265.3,1015.7v1.6h0c0.7-1.3,1.8-1.9,3.4-1.9c0.7,0,1.2,0.1,1.7,0.3c0.5,0.2,0.8,0.4,1.1,0.8
			c0.3,0.3,0.5,0.7,0.6,1.2s0.2,1,0.2,1.5v6.8h-1.7v-7c0-0.6-0.2-1.1-0.6-1.5c-0.4-0.4-0.9-0.6-1.5-0.6c-0.5,0-1,0.1-1.4,0.2
			s-0.7,0.4-0.9,0.7c-0.3,0.3-0.4,0.6-0.6,1c-0.1,0.4-0.2,0.8-0.2,1.3v5.8h-1.7v-10.3H265.3z"/>
		<path class="st2" d="M273.8,1017.2v-1.5h1.7v-1.5c0-0.8,0.2-1.5,0.7-1.9c0.5-0.4,1.2-0.7,2.1-0.7c0.2,0,0.3,0,0.6,0
			c0.2,0,0.4,0.1,0.5,0.1v1.5c-0.1-0.1-0.3-0.1-0.5-0.1c-0.2,0-0.3,0-0.5,0c-0.4,0-0.7,0.1-1,0.2c-0.2,0.2-0.3,0.5-0.3,0.9v1.4h2
			v1.5h-2v8.8h-1.7v-8.8H273.8z"/>
		<path class="st2" d="M280.5,1018.7c0.2-0.7,0.5-1.2,1-1.7s1-0.9,1.6-1.2c0.6-0.3,1.3-0.4,2.2-0.4c0.8,0,1.5,0.1,2.2,0.4
			c0.6,0.3,1.1,0.7,1.6,1.2s0.7,1.1,1,1.7s0.3,1.4,0.3,2.1s-0.1,1.5-0.3,2.1s-0.5,1.2-1,1.7c-0.4,0.5-1,0.9-1.6,1.1
			c-0.6,0.3-1.3,0.4-2.2,0.4c-0.8,0-1.5-0.1-2.2-0.4c-0.6-0.3-1.2-0.7-1.6-1.1c-0.4-0.5-0.7-1.1-1-1.7c-0.2-0.7-0.3-1.4-0.3-2.1
			S280.3,1019.4,280.5,1018.7z M282.2,1022.5c0.2,0.5,0.4,0.9,0.7,1.2c0.3,0.3,0.6,0.6,1,0.8c0.4,0.2,0.8,0.3,1.2,0.3
			c0.4,0,0.9-0.1,1.2-0.3c0.4-0.2,0.7-0.4,1-0.8c0.3-0.3,0.5-0.7,0.7-1.2c0.2-0.5,0.2-1,0.2-1.7c0-0.6-0.1-1.2-0.2-1.7
			c-0.2-0.5-0.4-0.9-0.7-1.2c-0.3-0.3-0.6-0.6-1-0.8c-0.4-0.2-0.8-0.3-1.2-0.3c-0.4,0-0.9,0.1-1.2,0.3c-0.4,0.2-0.7,0.4-1,0.8
			c-0.3,0.3-0.5,0.7-0.7,1.2c-0.2,0.5-0.2,1-0.2,1.7C282,1021.5,282.1,1022,282.2,1022.5z"/>
		<path class="st2" d="M301.5,1021.1c0,0.2-0.1,0.3-0.1,0.5c0,0.4,0.2,0.6,0.5,0.6c0.3,0,0.6-0.1,1-0.4c0.3-0.3,0.6-0.6,0.9-1.1
			c0.3-0.4,0.5-0.9,0.7-1.5c0.2-0.5,0.3-1.1,0.3-1.6c0-0.8-0.2-1.5-0.5-2.1s-0.7-1.2-1.2-1.6c-0.5-0.4-1.1-0.8-1.7-1
			c-0.6-0.2-1.3-0.4-2-0.4c-0.9,0-1.6,0.2-2.4,0.5c-0.7,0.3-1.4,0.8-1.9,1.4c-0.5,0.6-1,1.3-1.3,2c-0.3,0.8-0.5,1.6-0.5,2.5
			c0,0.9,0.2,1.7,0.5,2.5s0.8,1.4,1.3,2s1.2,1,2,1.3c0.7,0.3,1.5,0.5,2.4,0.5c1,0,1.9-0.2,2.8-0.7c0.9-0.4,1.6-1,2.2-1.8h1.3
			c-0.3,0.6-0.7,1.1-1.2,1.5c-0.5,0.4-0.9,0.8-1.5,1.1s-1.1,0.5-1.7,0.7c-0.6,0.2-1.2,0.2-1.9,0.2c-1.1,0-2-0.2-2.9-0.6
			c-0.9-0.4-1.7-0.9-2.4-1.6c-0.7-0.7-1.2-1.5-1.6-2.4c-0.4-0.9-0.6-1.9-0.6-3c0-1,0.2-2,0.6-2.9c0.4-0.9,0.9-1.7,1.6-2.4
			c0.7-0.7,1.5-1.2,2.4-1.6s1.9-0.6,2.9-0.6c0.9,0,1.8,0.2,2.6,0.5s1.6,0.7,2.2,1.3c0.6,0.5,1.1,1.2,1.5,1.9
			c0.4,0.8,0.5,1.6,0.5,2.5c0,0.9-0.2,1.7-0.5,2.4s-0.7,1.3-1.2,1.8s-1,0.9-1.5,1.2s-1.1,0.4-1.5,0.4c-0.3,0-0.6-0.1-0.9-0.3
			c-0.2-0.2-0.4-0.5-0.4-1H300c-0.3,0.3-0.7,0.7-1.1,0.9c-0.4,0.3-0.9,0.4-1.4,0.4c-0.4,0-0.8-0.1-1.2-0.2c-0.4-0.2-0.7-0.4-0.9-0.7
			c-0.2-0.3-0.4-0.6-0.6-1c-0.1-0.4-0.2-0.8-0.2-1.2c0-0.7,0.1-1.4,0.3-2.1c0.2-0.7,0.5-1.3,1-1.8c0.4-0.5,0.9-1,1.5-1.3
			c0.6-0.3,1.2-0.5,1.9-0.5c0.5,0,0.9,0.1,1.3,0.4c0.4,0.2,0.7,0.7,0.9,1.3l0.5-1.3h1.3l-1.7,5.7
			C301.6,1020.8,301.5,1021,301.5,1021.1z M298.1,1016.3c-0.4,0.3-0.7,0.6-1,1c-0.3,0.4-0.5,0.9-0.7,1.4c-0.2,0.5-0.2,0.9-0.2,1.4
			c0,0.6,0.2,1,0.5,1.4c0.3,0.4,0.7,0.5,1.2,0.5c0.4,0,0.8-0.1,1.2-0.4c0.4-0.3,0.7-0.6,1-1.1c0.3-0.4,0.5-0.9,0.7-1.4
			c0.2-0.5,0.2-0.9,0.2-1.4c0-0.2,0-0.5-0.1-0.7c-0.1-0.2-0.2-0.4-0.4-0.6c-0.2-0.2-0.3-0.3-0.5-0.4c-0.2-0.1-0.4-0.2-0.6-0.2
			C298.9,1015.9,298.5,1016,298.1,1016.3z"/>
		<path class="st2" d="M310,1015.7v1.4h0c0.3-0.6,0.7-1,1.3-1.2c0.6-0.3,1.3-0.4,2-0.4c0.8,0,1.5,0.1,2.1,0.4
			c0.6,0.3,1.1,0.7,1.5,1.2c0.4,0.5,0.7,1.1,0.9,1.7c0.2,0.7,0.3,1.3,0.3,2.1s-0.1,1.4-0.3,2.1c-0.2,0.7-0.5,1.2-0.9,1.7
			c-0.4,0.5-0.9,0.9-1.5,1.1c-0.6,0.3-1.3,0.4-2.1,0.4c-0.3,0-0.5,0-0.9-0.1c-0.3-0.1-0.6-0.1-0.9-0.3c-0.3-0.1-0.6-0.3-0.9-0.5
			c-0.3-0.2-0.5-0.5-0.7-0.8h0v5.3h-1.7v-14.3H310z M316.1,1019.3c-0.1-0.5-0.3-0.9-0.6-1.2c-0.3-0.4-0.6-0.6-1-0.9
			s-0.9-0.3-1.4-0.3c-0.6,0-1.1,0.1-1.5,0.3c-0.4,0.2-0.7,0.5-1,0.9c-0.3,0.4-0.4,0.8-0.6,1.2s-0.2,0.9-0.2,1.4c0,0.5,0.1,1,0.2,1.5
			c0.1,0.5,0.3,0.9,0.6,1.2c0.3,0.4,0.6,0.7,1,0.9c0.4,0.2,0.9,0.3,1.5,0.3c0.6,0,1.1-0.1,1.5-0.3c0.4-0.2,0.7-0.5,1-0.9
			c0.2-0.4,0.4-0.8,0.5-1.3c0.1-0.5,0.2-1,0.2-1.5C316.3,1020.3,316.2,1019.8,316.1,1019.3z"/>
		<path class="st2" d="M321.6,1015.7v2.2h0c0.4-0.8,0.9-1.5,1.5-1.9c0.6-0.4,1.4-0.6,2.3-0.6v1.8c-0.7,0-1.3,0.1-1.7,0.3
			s-0.9,0.5-1.2,0.8c-0.3,0.4-0.5,0.8-0.6,1.3c-0.1,0.5-0.2,1.1-0.2,1.8v4.6H320v-10.3H321.6z"/>
		<path class="st2" d="M326.2,1018.7c0.2-0.7,0.5-1.2,1-1.7s1-0.9,1.6-1.2c0.6-0.3,1.3-0.4,2.2-0.4c0.8,0,1.5,0.1,2.2,0.4
			c0.6,0.3,1.1,0.7,1.6,1.2s0.7,1.1,1,1.7s0.3,1.4,0.3,2.1s-0.1,1.5-0.3,2.1s-0.5,1.2-1,1.7c-0.4,0.5-1,0.9-1.6,1.1
			c-0.6,0.3-1.3,0.4-2.2,0.4c-0.8,0-1.5-0.1-2.2-0.4c-0.6-0.3-1.2-0.7-1.6-1.1c-0.4-0.5-0.7-1.1-1-1.7c-0.2-0.7-0.3-1.4-0.3-2.1
			S325.9,1019.4,326.2,1018.7z M327.9,1022.5c0.2,0.5,0.4,0.9,0.7,1.2c0.3,0.3,0.6,0.6,1,0.8c0.4,0.2,0.8,0.3,1.2,0.3
			c0.4,0,0.9-0.1,1.2-0.3c0.4-0.2,0.7-0.4,1-0.8c0.3-0.3,0.5-0.7,0.7-1.2c0.2-0.5,0.2-1,0.2-1.7c0-0.6-0.1-1.2-0.2-1.7
			c-0.2-0.5-0.4-0.9-0.7-1.2c-0.3-0.3-0.6-0.6-1-0.8c-0.4-0.2-0.8-0.3-1.2-0.3c-0.4,0-0.9,0.1-1.2,0.3c-0.4,0.2-0.7,0.4-1,0.8
			c-0.3,0.3-0.5,0.7-0.7,1.2c-0.2,0.5-0.2,1-0.2,1.7C327.6,1021.5,327.7,1022,327.9,1022.5z"/>
		<path class="st2" d="M344.1,1017.5c-0.4-0.4-1-0.5-1.7-0.5c-0.6,0-1.1,0.1-1.5,0.3c-0.4,0.2-0.7,0.5-1,0.9
			c-0.2,0.4-0.4,0.8-0.5,1.3c-0.1,0.5-0.2,1-0.2,1.5c0,0.5,0.1,0.9,0.2,1.4s0.3,0.9,0.5,1.2c0.2,0.4,0.6,0.6,0.9,0.8
			c0.4,0.2,0.8,0.3,1.4,0.3c0.8,0,1.5-0.2,2-0.7c0.5-0.4,0.8-1.1,0.9-1.9h1.7c-0.2,1.3-0.7,2.3-1.4,3c-0.8,0.7-1.8,1-3.1,1
			c-0.8,0-1.5-0.1-2.1-0.4c-0.6-0.3-1.1-0.6-1.5-1.1c-0.4-0.5-0.7-1-0.9-1.7c-0.2-0.6-0.3-1.4-0.3-2.1s0.1-1.5,0.3-2.2
			c0.2-0.7,0.5-1.3,0.9-1.8c0.4-0.5,0.9-0.9,1.5-1.2c0.6-0.3,1.3-0.4,2.1-0.4c0.6,0,1.1,0.1,1.6,0.2c0.5,0.1,1,0.4,1.4,0.7
			s0.7,0.7,1,1.1c0.3,0.4,0.4,1,0.5,1.6h-1.8C344.8,1018.3,344.5,1017.8,344.1,1017.5z"/>
		<path class="st2" d="M348.4,1018.7c0.2-0.7,0.5-1.2,1-1.7s1-0.9,1.6-1.2c0.6-0.3,1.3-0.4,2.2-0.4c0.8,0,1.5,0.1,2.2,0.4
			c0.6,0.3,1.1,0.7,1.6,1.2s0.7,1.1,1,1.7s0.3,1.4,0.3,2.1s-0.1,1.5-0.3,2.1s-0.5,1.2-1,1.7c-0.4,0.5-1,0.9-1.6,1.1
			c-0.6,0.3-1.3,0.4-2.2,0.4c-0.8,0-1.5-0.1-2.2-0.4c-0.6-0.3-1.2-0.7-1.6-1.1c-0.4-0.5-0.7-1.1-1-1.7c-0.2-0.7-0.3-1.4-0.3-2.1
			S348.2,1019.4,348.4,1018.7z M350.1,1022.5c0.2,0.5,0.4,0.9,0.7,1.2c0.3,0.3,0.6,0.6,1,0.8c0.4,0.2,0.8,0.3,1.2,0.3
			c0.4,0,0.9-0.1,1.2-0.3c0.4-0.2,0.7-0.4,1-0.8c0.3-0.3,0.5-0.7,0.7-1.2c0.2-0.5,0.2-1,0.2-1.7c0-0.6-0.1-1.2-0.2-1.7
			c-0.2-0.5-0.4-0.9-0.7-1.2c-0.3-0.3-0.6-0.6-1-0.8c-0.4-0.2-0.8-0.3-1.2-0.3c-0.4,0-0.9,0.1-1.2,0.3c-0.4,0.2-0.7,0.4-1,0.8
			c-0.3,0.3-0.5,0.7-0.7,1.2c-0.2,0.5-0.2,1-0.2,1.7C349.9,1021.5,349.9,1022,350.1,1022.5z"/>
		<path class="st2" d="M361.6,1015.7v2.2h0c0.4-0.8,0.9-1.5,1.5-1.9c0.6-0.4,1.4-0.6,2.3-0.6v1.8c-0.7,0-1.3,0.1-1.7,0.3
			s-0.9,0.5-1.2,0.8c-0.3,0.4-0.5,0.8-0.6,1.3c-0.1,0.5-0.2,1.1-0.2,1.8v4.6H360v-10.3H361.6z"/>
		<path class="st2" d="M371.2,1019.6v1.6h-5.8v-1.6H371.2z"/>
		<path class="st2" d="M373.5,1013.8v-2.1h1.7v2.1H373.5z M375.2,1015.7v10.3h-1.7v-10.3H375.2z"/>
		<path class="st2" d="M379.5,1015.7v1.6h0c0.7-1.3,1.8-1.9,3.4-1.9c0.7,0,1.2,0.1,1.7,0.3c0.5,0.2,0.8,0.4,1.1,0.8
			c0.3,0.3,0.5,0.7,0.6,1.2s0.2,1,0.2,1.5v6.8h-1.7v-7c0-0.6-0.2-1.1-0.6-1.5c-0.4-0.4-0.9-0.6-1.5-0.6c-0.5,0-1,0.1-1.4,0.2
			s-0.7,0.4-0.9,0.7c-0.3,0.3-0.4,0.6-0.6,1c-0.1,0.4-0.2,0.8-0.2,1.3v5.8h-1.7v-10.3H379.5z"/>
		<path class="st2" d="M390.3,1023.7c0.2,0.3,0.4,0.5,0.6,0.6c0.3,0.2,0.6,0.3,0.9,0.3c0.3,0.1,0.7,0.1,1,0.1c0.3,0,0.5,0,0.8-0.1
			c0.3,0,0.6-0.1,0.8-0.2c0.2-0.1,0.5-0.3,0.6-0.5c0.2-0.2,0.2-0.5,0.2-0.8c0-0.4-0.2-0.8-0.5-1c-0.3-0.2-0.8-0.4-1.2-0.5
			c-0.5-0.1-1-0.3-1.6-0.4c-0.6-0.1-1.1-0.3-1.6-0.5s-0.9-0.5-1.2-0.9s-0.5-0.9-0.5-1.6c0-0.5,0.1-1,0.4-1.3
			c0.2-0.4,0.5-0.7,0.9-0.9s0.8-0.4,1.2-0.5s0.9-0.2,1.4-0.2c0.6,0,1.1,0,1.6,0.2c0.5,0.1,0.9,0.3,1.3,0.5c0.4,0.2,0.7,0.6,0.9,1
			c0.2,0.4,0.4,0.9,0.4,1.6H395c0-0.3-0.1-0.6-0.3-0.8c-0.1-0.2-0.3-0.4-0.6-0.5c-0.2-0.1-0.5-0.2-0.8-0.3c-0.3-0.1-0.5-0.1-0.8-0.1
			c-0.3,0-0.5,0-0.8,0.1c-0.3,0-0.5,0.1-0.7,0.2c-0.2,0.1-0.4,0.2-0.5,0.4c-0.1,0.2-0.2,0.4-0.2,0.7c0,0.3,0.1,0.5,0.3,0.7
			c0.2,0.2,0.5,0.4,0.8,0.5c0.3,0.1,0.7,0.2,1.1,0.3c0.4,0.1,0.8,0.2,1.2,0.3c0.4,0.1,0.8,0.2,1.2,0.3c0.4,0.1,0.8,0.3,1.1,0.5
			c0.3,0.2,0.6,0.5,0.8,0.8s0.3,0.7,0.3,1.2c0,0.6-0.1,1.1-0.4,1.6c-0.3,0.4-0.6,0.7-1,1c-0.4,0.3-0.9,0.4-1.4,0.5
			c-0.5,0.1-1,0.1-1.6,0.1c-0.6,0-1.1-0.1-1.6-0.2s-1-0.3-1.4-0.6s-0.7-0.6-1-1.1c-0.2-0.4-0.4-1-0.4-1.6h1.7
			C390.1,1023.1,390.1,1023.4,390.3,1023.7z"/>
		<path class="st2" d="M403.4,1015.7v1.5h-2.1v6.4c0,0.2,0,0.4,0,0.5c0,0.1,0.1,0.2,0.2,0.3c0.1,0.1,0.2,0.1,0.4,0.1
			c0.2,0,0.4,0,0.6,0h0.8v1.5h-1.3c-0.4,0-0.8,0-1.1-0.1c-0.3-0.1-0.6-0.2-0.8-0.3s-0.3-0.4-0.4-0.7c-0.1-0.3-0.1-0.7-0.1-1.2v-6.6
			h-1.8v-1.5h1.8v-3.1h1.7v3.1H403.4z"/>
		<path class="st2" d="M414.5,1026c-0.3,0.2-0.7,0.3-1.2,0.3c-0.4,0-0.8-0.1-1.1-0.4c-0.3-0.2-0.4-0.6-0.4-1.2c-0.5,0.6-1,1-1.6,1.2
			c-0.6,0.2-1.3,0.4-2,0.4c-0.5,0-0.9-0.1-1.3-0.2c-0.4-0.1-0.8-0.3-1.1-0.5c-0.3-0.2-0.6-0.5-0.7-0.9c-0.2-0.4-0.3-0.8-0.3-1.3
			c0-0.6,0.1-1.1,0.3-1.4s0.5-0.7,0.8-0.9c0.3-0.2,0.7-0.4,1.1-0.5c0.4-0.1,0.8-0.2,1.3-0.3c0.5-0.1,0.9-0.2,1.3-0.2
			c0.4,0,0.8-0.1,1.1-0.2c0.3-0.1,0.6-0.2,0.8-0.4c0.2-0.2,0.3-0.4,0.3-0.7c0-0.4-0.1-0.7-0.2-0.9c-0.1-0.2-0.3-0.4-0.5-0.5
			c-0.2-0.1-0.5-0.2-0.7-0.2c-0.3,0-0.5-0.1-0.8-0.1c-0.7,0-1.3,0.1-1.8,0.4s-0.7,0.8-0.8,1.5h-1.7c0-0.6,0.2-1.2,0.4-1.6
			c0.2-0.4,0.6-0.8,1-1.1s0.9-0.5,1.4-0.6c0.5-0.1,1.1-0.2,1.6-0.2c0.5,0,0.9,0,1.4,0.1c0.5,0.1,0.9,0.2,1.2,0.4
			c0.4,0.2,0.7,0.5,0.9,0.9c0.2,0.4,0.3,0.9,0.3,1.5v5.3c0,0.4,0,0.7,0.1,0.9c0,0.2,0.2,0.3,0.5,0.3c0.1,0,0.3,0,0.5-0.1V1026z
			 M411.7,1020.7c-0.2,0.2-0.5,0.3-0.8,0.3s-0.7,0.1-1.1,0.2c-0.4,0-0.8,0.1-1.1,0.2c-0.4,0.1-0.7,0.2-1,0.3
			c-0.3,0.1-0.6,0.3-0.8,0.6c-0.2,0.2-0.3,0.6-0.3,1c0,0.3,0.1,0.5,0.2,0.7s0.3,0.3,0.4,0.5c0.2,0.1,0.4,0.2,0.6,0.3
			c0.2,0.1,0.5,0.1,0.8,0.1c0.6,0,1-0.1,1.4-0.2s0.7-0.3,1-0.6s0.4-0.5,0.6-0.8c0.1-0.3,0.2-0.5,0.2-0.8V1020.7z"/>
		<path class="st2" d="M417.8,1011.7v14.3h-1.7v-14.3H417.8z"/>
		<path class="st2" d="M429.6,1026c-0.3,0.2-0.7,0.3-1.2,0.3c-0.4,0-0.8-0.1-1.1-0.4c-0.3-0.2-0.4-0.6-0.4-1.2c-0.5,0.6-1,1-1.6,1.2
			c-0.6,0.2-1.3,0.4-2,0.4c-0.5,0-0.9-0.1-1.3-0.2c-0.4-0.1-0.8-0.3-1.1-0.5c-0.3-0.2-0.6-0.5-0.7-0.9c-0.2-0.4-0.3-0.8-0.3-1.3
			c0-0.6,0.1-1.1,0.3-1.4s0.5-0.7,0.8-0.9c0.3-0.2,0.7-0.4,1.1-0.5c0.4-0.1,0.8-0.2,1.3-0.3c0.5-0.1,0.9-0.2,1.3-0.2
			c0.4,0,0.8-0.1,1.1-0.2c0.3-0.1,0.6-0.2,0.8-0.4c0.2-0.2,0.3-0.4,0.3-0.7c0-0.4-0.1-0.7-0.2-0.9c-0.1-0.2-0.3-0.4-0.5-0.5
			c-0.2-0.1-0.5-0.2-0.7-0.2c-0.3,0-0.5-0.1-0.8-0.1c-0.7,0-1.3,0.1-1.8,0.4s-0.7,0.8-0.8,1.5h-1.7c0-0.6,0.2-1.2,0.4-1.6
			c0.2-0.4,0.6-0.8,1-1.1s0.9-0.5,1.4-0.6c0.5-0.1,1.1-0.2,1.6-0.2c0.5,0,0.9,0,1.4,0.1c0.5,0.1,0.9,0.2,1.2,0.4
			c0.4,0.2,0.7,0.5,0.9,0.9c0.2,0.4,0.3,0.9,0.3,1.5v5.3c0,0.4,0,0.7,0.1,0.9c0,0.2,0.2,0.3,0.5,0.3c0.1,0,0.3,0,0.5-0.1V1026z
			 M426.9,1020.7c-0.2,0.2-0.5,0.3-0.8,0.3s-0.7,0.1-1.1,0.2c-0.4,0-0.8,0.1-1.1,0.2c-0.4,0.1-0.7,0.2-1,0.3
			c-0.3,0.1-0.6,0.3-0.8,0.6c-0.2,0.2-0.3,0.6-0.3,1c0,0.3,0.1,0.5,0.2,0.7s0.3,0.3,0.4,0.5c0.2,0.1,0.4,0.2,0.6,0.3
			c0.2,0.1,0.5,0.1,0.8,0.1c0.6,0,1-0.1,1.4-0.2s0.7-0.3,1-0.6s0.4-0.5,0.6-0.8c0.1-0.3,0.2-0.5,0.2-0.8V1020.7z"/>
		<path class="st2" d="M435.6,1015.7v1.5h-2.1v6.4c0,0.2,0,0.4,0,0.5c0,0.1,0.1,0.2,0.2,0.3c0.1,0.1,0.2,0.1,0.4,0.1
			c0.2,0,0.4,0,0.6,0h0.8v1.5h-1.3c-0.4,0-0.8,0-1.1-0.1c-0.3-0.1-0.6-0.2-0.8-0.3s-0.3-0.4-0.4-0.7c-0.1-0.3-0.1-0.7-0.1-1.2v-6.6
			h-1.8v-1.5h1.8v-3.1h1.7v3.1H435.6z"/>
		<path class="st2" d="M437.6,1013.8v-2.1h1.7v2.1H437.6z M439.3,1015.7v10.3h-1.7v-10.3H439.3z"/>
		<path class="st2" d="M441.7,1018.7c0.2-0.7,0.5-1.2,1-1.7s1-0.9,1.6-1.2c0.6-0.3,1.3-0.4,2.2-0.4c0.8,0,1.5,0.1,2.2,0.4
			c0.6,0.3,1.1,0.7,1.6,1.2s0.7,1.1,1,1.7s0.3,1.4,0.3,2.1s-0.1,1.5-0.3,2.1s-0.5,1.2-1,1.7c-0.4,0.5-1,0.9-1.6,1.1
			c-0.6,0.3-1.3,0.4-2.2,0.4c-0.8,0-1.5-0.1-2.2-0.4c-0.6-0.3-1.2-0.7-1.6-1.1c-0.4-0.5-0.7-1.1-1-1.7c-0.2-0.7-0.3-1.4-0.3-2.1
			S441.5,1019.4,441.7,1018.7z M443.4,1022.5c0.2,0.5,0.4,0.9,0.7,1.2c0.3,0.3,0.6,0.6,1,0.8c0.4,0.2,0.8,0.3,1.2,0.3
			c0.4,0,0.9-0.1,1.2-0.3c0.4-0.2,0.7-0.4,1-0.8c0.3-0.3,0.5-0.7,0.7-1.2c0.2-0.5,0.2-1,0.2-1.7c0-0.6-0.1-1.2-0.2-1.7
			c-0.2-0.5-0.4-0.9-0.7-1.2c-0.3-0.3-0.6-0.6-1-0.8c-0.4-0.2-0.8-0.3-1.2-0.3c-0.4,0-0.9,0.1-1.2,0.3c-0.4,0.2-0.7,0.4-1,0.8
			c-0.3,0.3-0.5,0.7-0.7,1.2c-0.2,0.5-0.2,1-0.2,1.7C443.2,1021.5,443.3,1022,443.4,1022.5z"/>
		<path class="st2" d="M455,1015.7v1.6h0c0.7-1.3,1.8-1.9,3.4-1.9c0.7,0,1.2,0.1,1.7,0.3c0.5,0.2,0.8,0.4,1.1,0.8
			c0.3,0.3,0.5,0.7,0.6,1.2s0.2,1,0.2,1.5v6.8h-1.7v-7c0-0.6-0.2-1.1-0.6-1.5c-0.4-0.4-0.9-0.6-1.5-0.6c-0.5,0-1,0.1-1.4,0.2
			s-0.7,0.4-0.9,0.7c-0.3,0.3-0.4,0.6-0.6,1c-0.1,0.4-0.2,0.8-0.2,1.3v5.8h-1.7v-10.3H455z"/>
		<path class="st2" d="M465.9,1023.7c0.2,0.3,0.4,0.5,0.6,0.6c0.3,0.2,0.6,0.3,0.9,0.3c0.3,0.1,0.7,0.1,1,0.1c0.3,0,0.5,0,0.8-0.1
			c0.3,0,0.6-0.1,0.8-0.2c0.2-0.1,0.5-0.3,0.6-0.5c0.2-0.2,0.2-0.5,0.2-0.8c0-0.4-0.2-0.8-0.5-1c-0.3-0.2-0.8-0.4-1.2-0.5
			c-0.5-0.1-1-0.3-1.6-0.4c-0.6-0.1-1.1-0.3-1.6-0.5s-0.9-0.5-1.2-0.9s-0.5-0.9-0.5-1.6c0-0.5,0.1-1,0.4-1.3
			c0.2-0.4,0.5-0.7,0.9-0.9s0.8-0.4,1.2-0.5s0.9-0.2,1.4-0.2c0.6,0,1.1,0,1.6,0.2c0.5,0.1,0.9,0.3,1.3,0.5c0.4,0.2,0.7,0.6,0.9,1
			c0.2,0.4,0.4,0.9,0.4,1.6h-1.7c0-0.3-0.1-0.6-0.3-0.8c-0.1-0.2-0.3-0.4-0.6-0.5c-0.2-0.1-0.5-0.2-0.8-0.3
			c-0.3-0.1-0.5-0.1-0.8-0.1c-0.3,0-0.5,0-0.8,0.1c-0.3,0-0.5,0.1-0.7,0.2c-0.2,0.1-0.4,0.2-0.5,0.4c-0.1,0.2-0.2,0.4-0.2,0.7
			c0,0.3,0.1,0.5,0.3,0.7c0.2,0.2,0.5,0.4,0.8,0.5c0.3,0.1,0.7,0.2,1.1,0.3c0.4,0.1,0.8,0.2,1.2,0.3c0.4,0.1,0.8,0.2,1.2,0.3
			c0.4,0.1,0.8,0.3,1.1,0.5c0.3,0.2,0.6,0.5,0.8,0.8s0.3,0.7,0.3,1.2c0,0.6-0.1,1.1-0.4,1.6c-0.3,0.4-0.6,0.7-1,1
			c-0.4,0.3-0.9,0.4-1.4,0.5c-0.5,0.1-1,0.1-1.6,0.1c-0.6,0-1.1-0.1-1.6-0.2s-1-0.3-1.4-0.6s-0.7-0.6-1-1.1c-0.2-0.4-0.4-1-0.4-1.6
			h1.7C465.6,1023.1,465.7,1023.4,465.9,1023.7z"/>
		<path class="st2" d="M477.2,1023.8v2.2h-2.2v-2.2H477.2z"/>
		<path class="st2" d="M486.3,1017.5c-0.4-0.4-1-0.5-1.7-0.5c-0.6,0-1.1,0.1-1.5,0.3c-0.4,0.2-0.7,0.5-1,0.9s-0.4,0.8-0.5,1.3
			c-0.1,0.5-0.2,1-0.2,1.5c0,0.5,0.1,0.9,0.2,1.4s0.3,0.9,0.5,1.2c0.2,0.4,0.6,0.6,0.9,0.8c0.4,0.2,0.8,0.3,1.4,0.3
			c0.8,0,1.5-0.2,2-0.7c0.5-0.4,0.8-1.1,0.9-1.9h1.7c-0.2,1.3-0.7,2.3-1.4,3c-0.8,0.7-1.8,1-3.1,1c-0.8,0-1.5-0.1-2.1-0.4
			c-0.6-0.3-1.1-0.6-1.5-1.1c-0.4-0.5-0.7-1-0.9-1.7c-0.2-0.6-0.3-1.4-0.3-2.1s0.1-1.5,0.3-2.2c0.2-0.7,0.5-1.3,0.9-1.8
			s0.9-0.9,1.5-1.2c0.6-0.3,1.3-0.4,2.1-0.4c0.6,0,1.1,0.1,1.7,0.2s1,0.4,1.4,0.7c0.4,0.3,0.7,0.7,1,1.1c0.3,0.4,0.4,1,0.5,1.6h-1.8
			C487,1018.3,486.7,1017.8,486.3,1017.5z"/>
		<path class="st2" d="M490.6,1018.7c0.2-0.7,0.5-1.2,1-1.7c0.4-0.5,1-0.9,1.6-1.2c0.6-0.3,1.3-0.4,2.2-0.4c0.8,0,1.5,0.1,2.2,0.4
			c0.6,0.3,1.1,0.7,1.6,1.2s0.7,1.1,1,1.7s0.3,1.4,0.3,2.1s-0.1,1.5-0.3,2.1s-0.5,1.2-1,1.7c-0.4,0.5-1,0.9-1.6,1.1
			c-0.6,0.3-1.3,0.4-2.2,0.4c-0.8,0-1.5-0.1-2.2-0.4c-0.6-0.3-1.2-0.7-1.6-1.1c-0.4-0.5-0.7-1.1-1-1.7s-0.3-1.4-0.3-2.1
			S490.4,1019.4,490.6,1018.7z M492.3,1022.5c0.2,0.5,0.4,0.9,0.7,1.2c0.3,0.3,0.6,0.6,1,0.8c0.4,0.2,0.8,0.3,1.2,0.3
			c0.4,0,0.9-0.1,1.2-0.3c0.4-0.2,0.7-0.4,1-0.8c0.3-0.3,0.5-0.7,0.7-1.2c0.2-0.5,0.2-1,0.2-1.7c0-0.6-0.1-1.2-0.2-1.7
			c-0.2-0.5-0.4-0.9-0.7-1.2c-0.3-0.3-0.6-0.6-1-0.8c-0.4-0.2-0.8-0.3-1.2-0.3c-0.4,0-0.9,0.1-1.2,0.3c-0.4,0.2-0.7,0.4-1,0.8
			c-0.3,0.3-0.5,0.7-0.7,1.2c-0.2,0.5-0.2,1-0.2,1.7C492.1,1021.5,492.2,1022,492.3,1022.5z"/>
		<path class="st2" d="M503.9,1015.7v1.5h0c0.8-1.2,1.9-1.8,3.3-1.8c0.6,0,1.2,0.1,1.7,0.4s0.9,0.7,1.1,1.4c0.3-0.6,0.8-1,1.4-1.3
			s1.2-0.5,1.9-0.5c0.5,0,1,0.1,1.4,0.2s0.8,0.3,1.1,0.5s0.5,0.5,0.7,0.9c0.2,0.4,0.2,0.8,0.2,1.4v7.6h-1.7v-6.8
			c0-0.3,0-0.6-0.1-0.9c-0.1-0.3-0.2-0.5-0.3-0.7c-0.1-0.2-0.3-0.4-0.6-0.5c-0.3-0.1-0.6-0.2-1-0.2c-0.8,0-1.5,0.2-2,0.7
			c-0.5,0.5-0.7,1.1-0.7,1.9v6.4h-1.7v-6.8c0-0.3,0-0.6-0.1-0.9s-0.2-0.5-0.3-0.7s-0.3-0.4-0.6-0.5c-0.2-0.1-0.6-0.2-1-0.2
			c-0.5,0-0.9,0.1-1.3,0.3s-0.6,0.4-0.9,0.7c-0.2,0.3-0.4,0.6-0.5,0.9c-0.1,0.3-0.2,0.6-0.2,0.8v6.4h-1.7v-10.3H503.9z"/>
	</g>
</g>
</svg>
