<?xml version="1.0" encoding="utf-8"?>
<!-- Generator: Adobe Illustrator 24.2.3, SVG Export Plug-In . SVG Version: 6.00 Build 0)  -->
<svg version="1.1" id="Layer_1" xmlns="http://www.w3.org/2000/svg" xmlns:xlink="http://www.w3.org/1999/xlink" x="0px" y="0px"
	 width="50px" height="50px" viewBox="0 0 50 50" style="enable-background:new 0 0 50 50;" xml:space="preserve">
<style type="text/css">
	.st0{fill:#1F1F1F;}
	.st1{fill:#FFFFFF;}
</style>
<g>
	<rect x="0.7" y="0.6" class="st0" width="48.9" height="49"/>
	<path class="st1" d="M49.1,1.1v48H1.2v-48H49.1 M50.1,0.1H0.2v50h49.9V0.1L50.1,0.1z"/>
</g>
<g>
	<path class="st1" d="M18.7,17.8c0-2.2,1.6-3.7,3.7-3.6c1.7,0.1,3.4,0.1,5.1,0c2.1-0.1,3.7,1.3,3.7,3.6c0.3,0,0.6,0,1,0
		c1.1,0,2.2,0,3.2,0.1c1.6,0.1,2.8,1.5,2.8,3.1c0,3.8,0,7.7,0,11.5c0,1.7-1.2,3-2.8,3.2c-0.2,0-0.4,0-0.6,0c-6.5,0-13,0-19.5,0
		c-1.3,0-2.3-0.4-3-1.5c-0.3-0.5-0.5-1.1-0.5-1.7c0-3.8,0-7.5,0-11.3c0-2.1,1.3-3.4,3.4-3.5C16.3,17.8,17.5,17.8,18.7,17.8z
		 M19,26.4c0,3.3,2.7,6,6,6c3.3,0,6-2.7,6-6c0-3.3-2.7-6-6-6C21.7,20.4,19,23.2,19,26.4z"/>
	<path class="st1" d="M28.2,26.5c0,1.7-1.5,3.2-3.2,3.2c-1.8,0-3.2-1.5-3.2-3.2c0-1.7,1.5-3.1,3.2-3.1
		C26.7,23.3,28.2,24.7,28.2,26.5z"/>
</g>
</svg>
