<?xml version="1.0" encoding="utf-8"?>
<!-- Generator: Adobe Illustrator 24.2.3, SVG Export Plug-In . SVG Version: 6.00 Build 0)  -->
<svg version="1.1" id="Layer_1" xmlns="http://www.w3.org/2000/svg" xmlns:xlink="http://www.w3.org/1999/xlink" x="0px" y="0px"
	 width="50px" height="50px" viewBox="0 0 50 50" style="enable-background:new 0 0 50 50;" xml:space="preserve">
<style type="text/css">
	.st0{fill:#707070;}
</style>
<g id="Group_29" transform="translate(-1551 -422)">
	<g id="Rectangle_9" transform="translate(1551 422)">
		<g>
			<path class="st0" d="M48,2v46H2V2H48 M50,0H0v50h50V0L50,0z"/>
		</g>
	</g>
	<g id="Group_26" transform="translate(1255.5 -529.5)">
		<path id="Path_46" class="st0" d="M309.5,977.8c-0.1-0.4-0.1-0.9-0.1-1.3c0-6.1,4.9-11.1,11-11.1c2.8,0,5.5,1,7.5,2.9l-1,1
			c-0.2,0.2-0.3,0.5-0.2,0.8c0.1,0.3,0.3,0.5,0.6,0.6c0.2,0,5.8,1.8,5.4,1.8c0.5,0.1,0.9-0.2,1-0.7c0-0.1,0-0.2,0-0.3
			c0-0.2-1.3-6.4-1.2-6.1c-0.1-0.5-0.5-0.8-1-0.7c-0.2,0-0.3,0.1-0.4,0.2l-0.8,0.8c-5.9-5.4-15.1-5.1-20.5,0.8
			c-2.5,2.7-3.8,6.2-3.9,9.8v0c0,0.5,0,0.8,0,1.1c0,0.4,0.3,0.7,0.7,0.8l1.7,0.3c0.5,0.1,0.9-0.2,1-0.7
			C309.5,978,309.5,977.9,309.5,977.8L309.5,977.8z"/>
		<path id="Path_47" class="st0" d="M334.3,974.6l-1.8-0.4c-0.5-0.1-0.9,0.2-1,0.7c0,0.1,0,0.2,0,0.3c0.1,0.4,0.1,0.9,0.1,1.3
			c0,6.1-4.9,11.1-11,11.1c-2.8,0-5.5-1-7.6-2.9l1-1c0.2-0.2,0.3-0.5,0.2-0.8c-0.1-0.3-0.3-0.5-0.6-0.6c-0.2,0-5.8-1.8-5.4-1.8
			c-0.3-0.1-0.6,0-0.8,0.2c-0.2,0.2-0.3,0.5-0.2,0.8l1.2,6c0.1,0.3,0.3,0.6,0.6,0.6c0.3,0.1,0.6,0,0.8-0.2l0.8-0.8
			c5.8,5.5,15,5.2,20.5-0.7c2.5-2.7,3.9-6.2,3.9-9.9v-0.1c0-0.4,0-0.7,0-1.1C334.9,975,334.6,974.7,334.3,974.6L334.3,974.6z"/>
	</g>
</g>
</svg>
